<svg width="180px" height="70px" xmlns="http://www.w3.org/2000/svg" viewBox="0 0 83.4 18.2" fill="rgba(0, 128, 0, 0.73)"><title>Asset 28</title><g id="Layer_2" data-name="Layer 2"><g id="Layer_2-2" data-name="Layer 2"><path d="M9,15.58l-.55-.69a2.12,2.12,0,0,0,1.34,0,1.61,1.61,0,0,0,1-.84v.83h1.52l-.83.55H15.3v-1.1l-2.75-3,.27-.28,3,3h4.63s0,.14,0,.31a2,2,0,0,1-.1.51,1.37,1.37,0,0,1-.23.45.36.36,0,0,1-.43.11h1.38V13.1H17.78l3.59-.42.55-.55h3.86l.83.55V6.2h-2a6,6,0,0,1,.06-.68c.09-.52.24-.84.46-1a2.44,2.44,0,0,1,1.05-.18h.18a1.87,1.87,0,0,1,.33,0,1.35,1.35,0,0,1,.32.09.22.22,0,0,1,.14.22l.13,7.17a.54.54,0,0,0,.41-.25,1.87,1.87,0,0,0,.13-.4,1.35,1.35,0,0,1,.14-.37c.06-.11.21-.17.43-.17a1,1,0,0,1,.59.18c.18.12.21.37.1.73l.27-.27c.06-.39.1-.72.13-1s.05-.54.08-.82.05-.5.07-.69V8.66c0-.11,0-.23,0-.35s0-.24,0-.37V7.66c0-.08,0-.23,0-.43s0-.32,0-.34l-.28-.27a.67.67,0,0,0,.46-.07.32.32,0,0,0,.08-.26,1.59,1.59,0,0,0-.08-.35.8.8,0,0,1-.07-.31,2.15,2.15,0,0,0-.43,0l-.54.11a.61.61,0,0,1-.36-.08.27.27,0,0,1-.16-.33h1.65l1-5.38V11.58l.41-2.2c0-.06.16-.12.49-.18s.68-.13,1.08-.18L34,8.87a6.56,6.56,0,0,1,.72-.07v5.26c.09-.09.22-.19.37-.31s.32-.24.5-.35a4.4,4.4,0,0,1,.51-.29,1.61,1.61,0,0,1,.41-.15.53.53,0,0,1,.54.17,1.56,1.56,0,0,1,.28.51,2.93,2.93,0,0,1,.13.57.72.72,0,0,0,.15.4s.07,0,.14,0a1.27,1.27,0,0,0,.23-.12l.25-.14.16-.07s0,0,0,0,0,.06,0,0l-.27-.28a.7.7,0,0,1,0-.14.87.87,0,0,1,0-.13.45.45,0,0,1,.12-.15.52.52,0,0,1,.15-.13V11c-.26.05-.42,0-.48-.1a.77.77,0,0,1-.1-.4v-.27A2,2,0,0,1,38.29,9a3.71,3.71,0,0,1,1-.88,5.56,5.56,0,0,1,1.31-.54,5.49,5.49,0,0,1,1.27-.17H42s0,.11,0,.28a4.46,4.46,0,0,0,.08.58,2.25,2.25,0,0,0,.21.57.43.43,0,0,0,.38.25l.07,0h.07a3.69,3.69,0,0,0,.27-1c0-.31,0-.65,0-1,0-.09,0-.23,0-.41s0-.29,0-.31L41.22,2.21a.87.87,0,0,1,0-.14.7.7,0,0,1,0-.14.64.64,0,0,1,.12-.15.83.83,0,0,1,.15-.12l1.93,4.13a.73.73,0,0,1,.24-.49A1.67,1.67,0,0,1,44,5.06a1,1,0,0,0,.34-.27,1,1,0,0,0,.16-.65h1.65a.68.68,0,0,0,0,.53,1.07,1.07,0,0,0,.35.38,1.52,1.52,0,0,0,.49.19,1.05,1.05,0,0,0,.5,0,4.44,4.44,0,0,0-.24.56,2.37,2.37,0,0,0-.06.57.5.5,0,0,0,.16.43.57.57,0,0,1,.17.48,1.49,1.49,0,0,1-.27.86,1.91,1.91,0,0,0-.31.68c0,.06,0,.16,0,.32s0,.33,0,.51a5,5,0,0,1,0,.51c0,.16,0,.26,0,.32h2.37a1.07,1.07,0,0,1,.25-1.08,1.51,1.51,0,0,1,1-.33,3.87,3.87,0,0,0,.14,1.19,1.7,1.7,0,0,0,.35.66,1.14,1.14,0,0,0,.46.3l.45.15a1.54,1.54,0,0,1,.36.16.35.35,0,0,1,.14.33v2.75h.41a7.9,7.9,0,0,1,.24-1,1.69,1.69,0,0,1,.59-.91h1.79l1.64,0,1.43,0,1.52.08,1.89.14v.41H58.31l.28,2.07c0,.06,0,.08.11.08s.16,0,.16-.08A1.19,1.19,0,0,0,59,15a5.62,5.62,0,0,1,.15-.55,1.47,1.47,0,0,1,.28-.47.66.66,0,0,1,.51-.19h3.31l1.1,1h4.13l-3.86.41v.2H65l.52,0,.59,0h1l2.36-.15,2.93-.21,3.06-.23,2.77-.22,2-.18c.54-.06.84-.09.9-.11l1.37-.28.56-2.2.27,3.3a5.43,5.43,0,0,0-.4.67c-.17.33-.35.67-.52,1s-.33.66-.47.94-.23.41-.26.41h-80a.89.89,0,0,1-.56-.32,3.24,3.24,0,0,1-.58-.76,6.72,6.72,0,0,1-.46-.88A1.78,1.78,0,0,1,0,15.58Zm73.67-.69c0,.18.07.27.22.27s.22-.09.22-.27-.07-.28-.22-.28S82.63,14.71,82.63,14.89Zm-.77-.33a3.13,3.13,0,0,0-.9.14c-.3.09-.45.25-.45.49h.2l.21,0,.4-.06.45-.09a5.37,5.37,0,0,0,.53-.12v-.33Zm-3.15.6h1.38v-.27H78.71ZM78,14.88h-.13l-.43.12-.4.15h1.1v-.3Zm-2.34.64a2.15,2.15,0,0,0,.47,0,.46.46,0,0,0,.36-.31h-.83Zm-1.27-.31a3.93,3.93,0,0,0-.66.23h1.38v-.33A2.55,2.55,0,0,0,74.41,15.21Zm-1.29.15a1.83,1.83,0,0,0-.66,0c-.1,0-.12,0-.09.08a.57.57,0,0,0,.42.14.56.56,0,0,0,.41-.14S73.21,15.38,73.12,15.36ZM71,15.44a.32.32,0,0,0-.28.28h.12l.16,0a1.33,1.33,0,0,0,.42-.06,1.13,1.13,0,0,0,.4-.25h-.2l-.21,0Zm-.94.19-.31,0-.31,0c-.1,0-.13,0-.1.09s.19.13.41.13.36,0,.42-.13S70.15,15.65,70.06,15.63Zm-1.4,0-.42,0-.43,0q-.18,0-.12.09a.8.8,0,0,0,.55.13.82.82,0,0,0,.55-.13S68.78,15.65,68.66,15.63Zm-2.14.28-.21,0-.21,0C66,15.93,66,16,66,16s.13.14.28.14.24,0,.27-.14S66.58,15.93,66.52,15.91Zm-1.15,0a1.39,1.39,0,0,0-.3,0,1.66,1.66,0,0,0-.32,0c-.1,0-.13.05-.1.08s.2.14.42.14.35,0,.41-.14S65.46,15.93,65.37,15.91Zm-6.64-.06c-.11,0-.16.05-.14.14s.06.14.14.14.1,0,.13-.14S58.85,15.85,58.73,15.85ZM43.48,6.34c0,.19.07.28.22.28s.22-.09.22-.28-.07-.27-.22-.27S43.48,6.16,43.48,6.34Zm-.15,2.15a5.66,5.66,0,0,0,0,.75,5.6,5.6,0,0,0,0,.74c0,.22.06.3.09.22a1.1,1.1,0,0,0,.09-.38c0-.19,0-.38,0-.58s0-.4,0-.58a1.17,1.17,0,0,0-.09-.39C43.39,8.2,43.36,8.27,43.33,8.49Zm-.07,2.65c-.07.08-.11.13-.11.17s0,.14,0,.27,0,.27,0,.41,0,.29,0,.42,0,.22,0,.27h.38V11A.34.34,0,0,0,43.26,11.14Zm-.61-.33c-.11.11-.13.18,0,.22a.21.21,0,0,0,.27-.28C42.84,10.68,42.76,10.7,42.65,10.81Zm-.33,1.87h.28v-1.1h-.28ZM30.37,4.36a5.6,5.6,0,0,0,0,.74,5.66,5.66,0,0,0,0,.75c0,.22.06.29.1.22a1.6,1.6,0,0,0,.08-.39,5.35,5.35,0,0,0,0-.58,5.49,5.49,0,0,0,0-.58,1.49,1.49,0,0,0-.08-.38C30.43,4.06,30.4,4.14,30.37,4.36Zm-.32,2.4c0,.12.05.17.14.13s.14-.08.14-.13,0-.1-.14-.14S30.05,6.63,30.05,6.76Zm-.32,3.84c-.1,1.06-.15,2.12-.15,3.19h.61V7.45C30,8.49,29.84,9.54,29.73,10.6Zm-.42-4.26c0,.19-.08.28-.22.28s-.22-.09-.22-.28.07-.27.22-.27S29.31,6.16,29.31,6.34ZM29,6.07c0,.18-.07.27-.22.27s-.22-.09-.22-.27.07-.28.22-.28S29,5.88,29,6.07Zm-1.18-.69c-.06,0-.1,0-.14-.14s0-.14.14-.14.17.05.13.14S27.9,5.38,27.85,5.38ZM27.65,5c0,.19-.07.28-.22.28s-.22-.09-.22-.28.08-.27.22-.27S27.65,4.78,27.65,5ZM25.36,14.3c-.29.19-.44.64-.44,1.36a1,1,0,0,0,.5-.21A3.66,3.66,0,0,0,26,15a3.61,3.61,0,0,0,.5-.55.82.82,0,0,0,.21-.41A2.48,2.48,0,0,0,25.36,14.3Zm.35,1.61a.71.71,0,0,0-.21,0l-.21,0c-.06,0-.08.05-.06.08s.13.14.27.14.24,0,.28-.14S25.77,15.93,25.71,15.91Zm-4.69,0a.64.64,0,0,0-.2,0,.66.66,0,0,0-.21,0c-.06,0-.09.05-.07.08s.13.14.28.14.24,0,.27-.14S21.09,15.93,21,15.91Zm-1.17-.06c-.13,0-.17.05-.14.14s.09.14.14.14.1,0,.14-.14S20,15.85,19.85,15.85Zm-4.7.06a4.39,4.39,0,0,0-.54,0,4.28,4.28,0,0,0-.52,0c-.17,0-.22.05-.17.08a1.27,1.27,0,0,0,.69.14A1.25,1.25,0,0,0,15.3,16C15.36,16,15.31,15.93,15.15,15.91Zm-1.86,0a1.83,1.83,0,0,0-.66,0c-.1,0-.12.05-.08.08a.67.67,0,0,0,.82,0S13.38,15.93,13.29,15.91Zm-1.38,0a1.83,1.83,0,0,0-.66,0c-.09,0-.12.05-.08.08A.67.67,0,0,0,12,16S12,15.93,11.91,15.91ZM10.12,16c0,.19.07.28.22.28s.22-.09.22-.28-.07-.27-.22-.27S10.12,15.81,10.12,16Zm-1-.08a2.63,2.63,0,0,0-.43,0,2.58,2.58,0,0,0-.42,0c-.12,0-.16.05-.13.08a.76.76,0,0,0,.55.14A.79.79,0,0,0,9.24,16S9.23,15.93,9.11,15.91Zm-1.61,0a1.83,1.83,0,0,0-.66,0c-.09,0-.12.05-.09.08a.55.55,0,0,0,.42.14A.53.53,0,0,0,7.58,16S7.59,15.93,7.5,15.91Zm-1.42,0a2.63,2.63,0,0,0-.43,0,2.72,2.72,0,0,0-.43,0c-.12,0-.16.05-.12.08a.74.74,0,0,0,.55.14A.74.74,0,0,0,6.2,16S6.2,15.93,6.08,15.91Zm-1.61,0a1.72,1.72,0,0,0-.34,0,1.55,1.55,0,0,0-.31,0c-.1,0-.14.05-.1.08s.19.14.41.14.37,0,.42-.14S4.56,15.93,4.47,15.91Zm-1.42,0a2.72,2.72,0,0,0-.43,0,2.63,2.63,0,0,0-.43,0c-.12,0-.16.05-.12.08a.74.74,0,0,0,.55.14A.76.76,0,0,0,3.17,16S3.16,15.93,3.05,15.91Zm-1.66,0a2.58,2.58,0,0,0-.42,0,2.63,2.63,0,0,0-.43,0c-.12,0-.16.05-.13.08a.77.77,0,0,0,.56.14A.77.77,0,0,0,1.52,16S1.51,15.93,1.39,15.91Z"/></g></g></svg>