<?xml version="1.0" encoding="UTF-8"?>
<svg xmlns="http://www.w3.org/2000/svg" xmlns:xlink="http://www.w3.org/1999/xlink" width="128px" height="59px" viewBox="0 0 127 59" version="1.1">
<g id="surface1">
<path style=" stroke:none;fill-rule:nonzero;fill:rgb(0%,0%,0%);fill-opacity:1;" d="M 126.964844 43.050781 C 126.867188 42.925781 126.667969 43.097656 126.464844 42.992188 C 125.957031 42.726562 125.785156 41.703125 125.785156 39.398438 C 125.785156 38.359375 125.757812 37.511719 125.722656 37.511719 C 125.570312 37.515625 125.4375 37.667969 125.5 37.773438 C 125.535156 37.835938 125.539062 37.863281 125.507812 37.832031 C 125.425781 37.761719 123.699219 38.519531 122.4375 38.921875 C 121.324219 39.277344 121.300781 39.425781 121.09375 39.425781 C 120.898438 39.425781 120.554688 39.742188 120.605469 39.875 C 120.628906 39.929688 120.578125 40.019531 120.5 40.066406 C 120.332031 40.171875 120.378906 40.3125 120.457031 40.796875 C 120.675781 40.792969 123.039062 40.792969 123.171875 40.683594 C 123.226562 40.636719 123.316406 40.625 123.367188 40.660156 C 123.527344 40.757812 125.457031 40.515625 125.558594 40.453125 C 125.632812 40.40625 125.640625 40.882812 125.570312 41.148438 C 125.507812 41.382812 123.464844 42.976562 123.203125 43.191406 C 123.199219 43.191406 114.40625 43.597656 113.066406 43.765625 C 112.648438 43.816406 112.367188 43.535156 112.738281 43.4375 C 112.824219 43.417969 112.890625 43.339844 112.890625 43.265625 C 112.890625 43.050781 112.835938 43.332031 112.441406 43.335938 C 112.214844 43.339844 112.203125 43.351562 112.332031 43.449219 C 112.453125 43.542969 112.53125 43.734375 112.457031 43.757812 C 112.019531 43.878906 111.652344 43.828125 111.652344 43.640625 C 111.652344 43.476562 111.601562 43.429688 111.402344 43.398438 C 111.128906 43.359375 111.058594 43.492188 111.320312 43.558594 C 111.523438 43.613281 111.535156 43.800781 111.339844 43.855469 C 111.007812 43.953125 110.855469 44.085938 110.929688 43.898438 C 111.003906 43.699219 110.765625 43.667969 109.015625 43.671875 C 106.335938 43.679688 109.546875 43.546875 102.039062 43.585938 C 102.054688 43.460938 102.144531 42.828125 102.050781 42.882812 C 102.011719 42.90625 101.980469 43.011719 101.976562 43.109375 C 101.976562 43.421875 101.882812 43.667969 101.761719 43.667969 C 101.496094 43.667969 101.742188 42.890625 102.078125 42.679688 C 102.214844 42.59375 102.226562 42.621094 102.226562 43.046875 C 102.226562 43.636719 102.390625 43.667969 102.390625 42.714844 C 102.390625 42.261719 102.429688 41.996094 102.496094 41.941406 C 102.628906 41.835938 103.546875 41.660156 103.640625 41.71875 C 103.777344 41.800781 104.621094 41.535156 102.703125 41.511719 C 102.257812 41.503906 102.144531 41.476562 102.144531 41.375 C 102.144531 41.195312 101.921875 41.222656 101.851562 40.996094 C 101.792969 40.808594 101.542969 40.789062 101.40625 40.957031 C 101.296875 41.089844 101.398438 41.367188 101.585938 41.457031 C 101.644531 41.484375 101.578125 41.484375 101.441406 41.460938 C 100.101562 41.226562 101.871094 41.4375 97.195312 41.476562 C 97.035156 39.992188 96.9375 40.050781 97.90625 40.042969 C 98.582031 40.039062 98.855469 39.992188 98.75 39.890625 C 98.699219 39.84375 97.109375 39.8125 96.875 39.683594 C 96.621094 39.546875 95.429688 39.554688 94.847656 39.363281 C 94.4375 39.230469 94.101562 39.355469 94.148438 39.621094 C 94.171875 39.734375 93.191406 39.695312 93.148438 39.582031 C 93.109375 39.480469 92.636719 39.488281 92.636719 39.589844 C 92.636719 39.714844 92.5 39.601562 92.226562 39.839844 C 91.988281 40.046875 91.886719 39.988281 91.984375 39.695312 C 92.15625 39.175781 92.550781 37.84375 92.636719 37.84375 C 92.671875 37.84375 92.722656 37.65625 92.753906 37.425781 C 92.808594 37.019531 92.816406 37.011719 93.089844 37.011719 C 93.4375 37.011719 93.53125 36.886719 93.28125 36.753906 C 93.007812 36.605469 92.832031 36.261719 92.707031 36.261719 C 92.566406 36.261719 91.363281 35.667969 91.296875 35.566406 C 91.1875 35.402344 91.296875 35.125 91.113281 34.984375 C 91.023438 34.914062 90.988281 34.664062 90.972656 34.015625 C 90.945312 32.683594 90.835938 32.578125 90.828125 33.871094 C 90.824219 34.5 90.785156 35.015625 90.746094 35.015625 C 90.707031 35.015625 90.65625 35.085938 90.632812 35.175781 C 90.585938 35.355469 90.242188 35.28125 89.8125 35 C 89.695312 34.921875 89.511719 34.84375 89.402344 34.828125 C 88.707031 34.734375 89.265625 34.347656 88.957031 34.347656 C 88.667969 34.347656 89.113281 34.660156 88.660156 34.5 C 88.339844 34.386719 88.296875 34.261719 88.457031 33.945312 C 88.753906 33.367188 88.644531 33.433594 87.183594 33.433594 C 87.171875 31.179688 87.015625 27.683594 87.015625 33.433594 L 85.695312 33.433594 C 85.652344 32.253906 85.683594 32.292969 85.601562 33.433594 L 84.207031 33.433594 C 84.203125 33.578125 84.1875 33.992188 84.175781 34.121094 C 84.164062 34.246094 83.441406 34.25 82.726562 34.273438 C 82.574219 33.40625 82.148438 31.953125 82.007812 31.507812 C 81.890625 31.140625 81.867188 31.117188 81.496094 31.050781 C 81.132812 30.980469 81.105469 30.960938 81.117188 30.730469 C 81.167969 29.503906 81.078125 29.378906 81.34375 29.277344 C 82.011719 29.023438 81.640625 27.695312 80.902344 27.695312 C 80.316406 27.695312 79.894531 28.917969 80.394531 29.1875 C 80.59375 29.292969 80.683594 29.605469 80.515625 29.605469 C 80.449219 29.605469 80.417969 29.644531 80.445312 29.691406 C 80.554688 29.867188 80.652344 29.410156 80.652344 30.375 L 80.652344 31.070312 C 79.457031 31.039062 79.328125 31.035156 79.328125 30.898438 C 79.328125 30.808594 79.417969 30.773438 79.617188 30.773438 C 80 30.773438 80.003906 30.605469 79.617188 30.605469 C 79.335938 30.605469 79.328125 30.597656 79.328125 30.273438 C 79.328125 29.949219 79.335938 29.941406 79.617188 29.941406 C 79.984375 29.941406 80 29.792969 79.640625 29.757812 C 79.207031 29.714844 79.179688 29.191406 79.613281 29.191406 C 79.921875 29.191406 80.308594 29.023438 78.957031 29.023438 C 78.027344 29.023438 78.007812 29.019531 78 28.835938 C 77.960938 27.335938 77.941406 27.191406 77.730469 26.914062 C 77.277344 26.3125 76.410156 26.191406 75.820312 26.644531 L 75.527344 26.871094 C 75.527344 26.578125 75.546875 18.625 75.269531 18.625 C 75.195312 18.625 75.199219 26.023438 75.40625 29.023438 C 74.125 29.023438 74.078125 29.101562 74.332031 28.484375 C 74.832031 27.28125 73.515625 25.679688 72.238281 25.9375 C 71.984375 25.988281 71.75 26.070312 71.71875 26.121094 C 71.59375 26.328125 71.613281 26.019531 71.148438 26.414062 C 70.101562 27.300781 70.699219 28.609375 70.460938 28.609375 C 70.351562 28.609375 70.460938 28.734375 70.59375 28.734375 C 70.691406 28.734375 70.847656 29.003906 70.53125 29.003906 C 70.175781 29.003906 70.410156 28.730469 70.257812 28.574219 C 70.171875 28.492188 70.175781 27.003906 70.160156 26.675781 C 70.152344 26.507812 69.992188 26.527344 68.320312 26.527344 C 68.34375 26.171875 68.367188 25.460938 68.507812 25.128906 C 68.613281 24.878906 68.609375 24.84375 68.480469 24.773438 C 68.21875 24.625 68.425781 24.28125 68.21875 24.554688 C 67.886719 24.992188 67.554688 24.65625 67.339844 23.660156 C 67.125 22.664062 66.941406 21.746094 66.957031 21.738281 C 67 21.71875 68.222656 21.484375 68.617188 21.363281 C 69.085938 21.214844 69.078125 21.199219 69.078125 22.382812 C 69.078125 23.710938 69.214844 24.199219 69.148438 21.226562 L 69.355469 21.1875 C 69.71875 21.117188 70.363281 22.054688 70.125 22.308594 C 70 22.441406 70.03125 23.867188 70.03125 24.574219 L 70.515625 24.574219 C 70.527344 23.542969 70.558594 22.082031 70.484375 22.785156 C 70.417969 23.433594 70.421875 22.738281 70.402344 20.964844 L 70.738281 20.761719 C 71.066406 20.566406 71.023438 20.378906 70.683594 20.511719 C 70.429688 20.609375 70.226562 18.496094 70.472656 18.339844 C 70.566406 18.285156 70.539062 16.476562 70.539062 16.296875 L 69.980469 16.296875 C 70.09375 18.773438 70.058594 18.640625 69.203125 19.972656 C 69.140625 17.03125 68.984375 17.4375 69.007812 18.980469 C 69.023438 19.890625 69 20.207031 68.910156 20.351562 C 68.789062 20.546875 68.5 20.609375 68.5 20.445312 C 68.5 20.382812 68.46875 20.378906 68.398438 20.4375 C 68.238281 20.566406 66.75 20.566406 66.667969 20.4375 C 66.507812 20.183594 66.589844 20.015625 66.847656 20.070312 C 66.988281 20.097656 67.09375 20.082031 67.09375 20.039062 C 67.09375 19.925781 66.515625 19.984375 66.515625 19.882812 C 66.515625 19.792969 66.433594 19.390625 66.414062 19.292969 C 66.558594 19.292969 67.175781 19.3125 67.175781 19.207031 C 67.175781 19.164062 66.992188 19.125 66.765625 19.125 C 66.28125 19.125 66.195312 18.945312 66.605469 18.800781 C 66.746094 18.753906 66.835938 18.675781 66.808594 18.628906 C 66.777344 18.582031 66.820312 18.542969 66.902344 18.539062 C 67.046875 18.539062 67.046875 18.53125 66.910156 18.453125 C 66.808594 18.394531 66.765625 18.265625 66.765625 18.035156 C 66.765625 17.734375 66.746094 17.703125 66.578125 17.726562 C 66.417969 17.746094 66.394531 17.796875 66.40625 18.0625 C 66.414062 18.261719 66.382812 18.375 66.320312 18.375 C 66.21875 18.375 66.15625 18.171875 65.898438 16.960938 C 65.683594 15.949219 65.476562 15.558594 65.875 15.546875 C 65.960938 15.546875 67 15.054688 67.527344 14.8125 C 68.25 14.476562 68.449219 14.253906 68.101562 14.160156 C 67.585938 14.023438 67.726562 12.550781 68.253906 12.550781 C 68.425781 12.550781 68.09375 11.605469 67.855469 11.40625 C 67.566406 11.167969 68.003906 11.484375 68.003906 11.261719 C 68.003906 11.164062 67.867188 11.136719 67.335938 11.136719 C 66.914062 11.136719 66.691406 11.167969 66.722656 11.222656 C 66.75 11.265625 66.875 11.304688 66.996094 11.308594 C 67.34375 11.3125 67.046875 11.339844 66.867188 11.746094 L 66.765625 11.976562 L 65.234375 11.929688 C 64.738281 10.421875 64.691406 10.390625 64.988281 10.390625 C 65.265625 10.390625 65.257812 10.222656 64.996094 10.222656 C 64.835938 10.222656 64.804688 10.1875 64.839844 10.054688 C 64.863281 9.964844 64.953125 9.890625 65.035156 9.890625 C 65.261719 9.890625 65.417969 9.5 65.378906 9.039062 C 65.34375 8.671875 65.296875 8.605469 65.070312 8.632812 C 64.917969 8.648438 64.960938 8.238281 65.125 8.089844 C 65.257812 7.964844 65.425781 7.945312 66.191406 7.960938 C 67.046875 7.976562 67.09375 7.96875 67.09375 7.8125 C 67.09375 7.585938 62.933594 7.542969 62.847656 7.769531 C 62.800781 7.898438 62.949219 7.933594 63.390625 7.902344 C 63.753906 7.871094 63.941406 8.128906 64.027344 7.992188 C 64.09375 7.882812 64.335938 8.175781 64.445312 8.285156 L 64.242188 8.246094 C 64.023438 8.203125 63.824219 8.472656 64.023438 8.542969 C 64.101562 8.566406 64.101562 8.601562 64.03125 8.691406 C 63.976562 8.757812 63.953125 8.808594 63.972656 8.808594 C 64.070312 8.808594 63.816406 9.371094 64.003906 9.617188 C 64.152344 9.816406 64.144531 9.855469 63.953125 9.855469 C 63.835938 9.855469 63.789062 9.800781 63.789062 9.660156 C 63.789062 9.40625 63.621094 9.511719 63.621094 9.707031 C 63.621094 9.832031 63.5 9.847656 62.507812 9.847656 C 61.582031 9.847656 60.921875 9.753906 61.578125 9.710938 C 61.757812 9.703125 61.757812 9.699219 61.585938 9.667969 C 61.242188 9.597656 61.269531 9.140625 61.617188 9.140625 C 61.882812 9.140625 61.757812 8.976562 61.558594 8.976562 C 61.191406 8.976562 61.265625 8.519531 61.640625 8.453125 C 61.839844 8.414062 61.839844 8.414062 61.617188 8.402344 C 61.292969 8.386719 61.273438 7.894531 61.597656 7.894531 C 61.710938 7.894531 61.804688 7.855469 61.804688 7.808594 C 61.804688 7.644531 61.023438 7.851562 61.617188 7.402344 C 61.761719 7.292969 61.8125 7.207031 61.757812 7.167969 C 61.660156 7.097656 61.65625 6.734375 61.75 6.582031 C 61.789062 6.519531 61.734375 6.464844 61.601562 6.429688 C 61.070312 6.296875 61.382812 6.144531 62.21875 6.132812 C 62.671875 6.125 63.089844 6.117188 63.148438 6.113281 C 63.292969 6.101562 63.539062 6.738281 63.546875 6.5625 C 63.566406 6.160156 63.53125 4.023438 63.613281 4.730469 C 63.691406 5.425781 63.761719 5.046875 63.730469 4.113281 C 63.703125 3.253906 63.621094 2.894531 63.621094 3.625 C 63.621094 4.03125 63.617188 4.042969 63.410156 4.003906 C 63.070312 3.9375 63.332031 3.808594 63.207031 3.402344 C 63.117188 3.105469 63.148438 3.515625 63.097656 4.5 C 63.0625 5.113281 63.203125 5.359375 63.222656 4.730469 C 63.234375 4.335938 63.242188 4.320312 63.269531 4.605469 C 63.398438 5.871094 62.96875 6.210938 62.332031 5.347656 C 61.476562 4.1875 61.308594 4.191406 61.660156 4.125 C 61.820312 4.09375 61.8125 4.085938 61.617188 4.078125 C 61.324219 4.0625 61.265625 3.566406 61.554688 3.566406 C 61.773438 3.566406 61.78125 3.402344 61.535156 3.398438 C 61.351562 3.394531 61.351562 3.394531 61.5625 3.207031 C 61.871094 2.933594 61.828125 1.917969 61.511719 2.039062 C 61.320312 2.113281 61.367188 1.851562 61.578125 1.679688 C 61.847656 1.460938 61.785156 0.546875 61.496094 0.503906 C 61.351562 0.484375 61.308594 0.421875 61.308594 0.234375 C 61.308594 -0.128906 61.195312 -0.0625 60.988281 0.421875 C 60.59375 1.324219 61.132812 2.34375 60.921875 2.210938 C 60.878906 2.183594 60.792969 2.199219 60.726562 2.238281 C 60.632812 2.300781 60.648438 2.316406 60.796875 2.316406 C 60.960938 2.320312 60.984375 2.355469 60.960938 2.589844 C 60.941406 2.792969 60.902344 2.855469 60.792969 2.835938 C 60.566406 2.796875 60.726562 2.984375 60.503906 2.941406 C 59.894531 2.824219 59.753906 3.070312 59.769531 2.597656 C 59.773438 2.429688 59.738281 2.28125 59.6875 2.261719 C 59.566406 2.21875 59.46875 2.582031 59.574219 2.6875 C 59.699219 2.8125 59.671875 2.902344 59.511719 2.902344 C 59.402344 2.902344 59.421875 2.933594 59.570312 3.007812 C 59.75 3.101562 59.792969 3.210938 59.902344 3.859375 C 60.058594 4.792969 60.054688 4.789062 60.558594 4.765625 C 60.96875 4.75 61.226562 5.132812 60.878906 5.25 C 60.820312 5.269531 60.808594 5.324219 60.855469 5.398438 C 61.019531 5.667969 60.976562 5.898438 60.761719 5.898438 C 60.484375 5.898438 60.605469 6.0625 60.824219 6.0625 C 61.074219 6.0625 61.007812 6.511719 60.75 6.546875 C 60.496094 6.582031 60.515625 6.761719 60.730469 6.703125 C 60.867188 6.667969 60.894531 6.703125 60.894531 6.902344 C 60.894531 7.09375 60.855469 7.148438 60.707031 7.15625 C 60.460938 7.171875 60.460938 7.15625 60.707031 7.203125 C 61.070312 7.273438 61.054688 7.746094 60.6875 7.835938 C 60.539062 7.871094 60.539062 7.875 60.707031 7.882812 C 60.859375 7.890625 60.894531 7.941406 60.894531 8.144531 C 60.894531 8.34375 60.859375 8.394531 60.707031 8.402344 L 60.523438 8.414062 C 60.820312 8.472656 60.894531 8.453125 60.894531 8.765625 C 60.894531 9.007812 60.871094 9.035156 60.714844 8.996094 C 60.453125 8.925781 60.632812 9.140625 60.777344 9.140625 C 60.992188 9.140625 60.929688 9.636719 60.707031 9.652344 L 60.523438 9.664062 C 60.828125 9.722656 60.894531 9.699219 60.894531 10.027344 C 60.894531 10.273438 60.871094 10.308594 60.738281 10.265625 C 60.53125 10.203125 60.390625 10.390625 60.683594 10.390625 C 60.925781 10.390625 60.894531 10.460938 60.894531 10.867188 L 58.871094 10.847656 C 58.859375 11.027344 58.796875 11.636719 58.90625 11.636719 C 59.03125 11.636719 58.957031 11.085938 59.078125 11.011719 C 59.125 10.980469 59.160156 11.085938 59.160156 11.273438 C 59.160156 11.542969 59.171875 11.566406 59.261719 11.441406 C 59.382812 11.28125 59.492188 11.472656 60.667969 13.085938 C 60.367188 13.988281 60.332031 14.121094 60.324219 13.824219 C 60.3125 13.40625 60.128906 13.597656 60.164062 13.171875 C 60.191406 12.835938 60.128906 12.757812 59.929688 12.875 C 59.828125 12.933594 59.816406 12.964844 59.894531 12.964844 C 60.128906 12.972656 59.789062 13.800781 60.03125 13.800781 C 60.097656 13.800781 60.152344 13.871094 60.152344 13.960938 C 60.152344 14.148438 60.019531 14.257812 59.945312 14.132812 C 59.875 14.019531 59.628906 14.027344 59.695312 14.132812 C 59.777344 14.265625 56.925781 14.183594 56.925781 14.261719 C 56.925781 14.652344 57.632812 14.734375 58.019531 14.8125 C 57.941406 15.320312 57.886719 15.964844 57.546875 15.964844 C 57.140625 15.964844 56.820312 16.78125 57.128906 17.039062 C 57.273438 17.160156 57.1875 17.128906 57.175781 20.457031 L 56.949219 20.457031 C 56.527344 20.457031 56.488281 20.578125 56.84375 20.777344 C 57.027344 20.882812 57.179688 21.027344 57.183594 21.105469 C 57.222656 21.605469 57.175781 22.316406 57.105469 22.359375 C 56.90625 22.484375 57.027344 24.535156 57.238281 24.585938 C 57.507812 24.65625 57.542969 24.589844 57.5625 24.007812 C 57.59375 23.105469 57.71875 22.285156 57.597656 22.285156 C 57.453125 22.285156 57.464844 23.765625 57.4375 22.554688 C 57.421875 21.820312 57.765625 21.089844 57.929688 21.511719 C 58.042969 21.800781 58.011719 26.539062 57.898438 26.523438 C 57.464844 26.464844 57.59375 26.695312 57.867188 26.695312 C 58.121094 26.695312 58.074219 27.214844 57.808594 27.347656 L 57.628906 27.433594 C 58.070312 27.445312 58.011719 27.324219 57.960938 28.566406 C 57.441406 28.585938 56.679688 28.667969 56.679688 28.292969 C 56.675781 27.417969 56.292969 27.527344 55.726562 27.5625 C 55.597656 15.828125 55.515625 9.417969 55.441406 20.789062 C 55.390625 27.8125 55.378906 28.054688 55.019531 28.472656 C 54.863281 28.652344 54.53125 28.445312 54.527344 28.171875 C 54.527344 27.5625 54.136719 27.332031 53.601562 27.621094 C 53.46875 27.691406 53.453125 27.640625 53.457031 27.011719 C 53.460938 20.585938 52.578125 8.917969 52.957031 16.753906 C 53.003906 17.714844 53.078125 19.101562 53.121094 19.832031 C 53.253906 22.027344 53.3125 27.835938 53.203125 27.902344 C 53.148438 27.9375 53.132812 28.050781 53.164062 28.171875 C 53.234375 28.457031 53.109375 28.523438 52.496094 28.523438 L 51.996094 28.523438 C 51.460938 31.117188 51.519531 31.183594 51.300781 31.128906 C 51.105469 31.078125 51.09375 31.21875 51.261719 31.542969 C 51.367188 31.75 51.363281 31.855469 51.226562 32.5 C 50.832031 34.359375 50.917969 34.347656 50.769531 34.347656 C 50.699219 34.347656 50.644531 34.386719 50.644531 34.433594 C 50.644531 34.546875 49.023438 34.515625 48.785156 34.515625 C 48.78125 36.585938 48.855469 36.554688 48.359375 36.390625 C 48.195312 36.335938 48.46875 13.796875 48.269531 14 C 48.160156 14.109375 48.179688 25.019531 48.027344 26.863281 C 48 27.203125 47.980469 27.523438 47.980469 27.570312 C 48.132812 31.703125 47.886719 36.84375 47.539062 36.84375 C 47.472656 36.84375 47.417969 36.890625 47.414062 36.949219 C 47.328125 38.59375 47.28125 38.410156 48.398438 38.453125 C 48.410156 39.851562 48.515625 39.835938 47.65625 39.839844 C 47.179688 39.839844 47.105469 39.820312 47.066406 39.675781 C 47.035156 39.554688 47.0625 39.507812 47.171875 39.507812 C 47.386719 39.507812 47.453125 39.085938 47.246094 39.03125 C 46.988281 38.960938 47.148438 38.617188 47.015625 38.828125 C 46.789062 39.191406 46.863281 38.132812 47.140625 37.015625 C 47.347656 36.195312 47.304688 35.941406 46.945312 35.796875 C 46.429688 35.59375 46.144531 35.414062 45.597656 35.222656 C 45.394531 35.148438 45.101562 35.007812 44.941406 34.902344 C 43.84375 34.1875 43.28125 34.265625 43.46875 35.105469 C 43.597656 35.683594 43.34375 36.511719 43.242188 37.550781 C 43.183594 38.164062 43.054688 39.054688 43.132812 39.199219 C 43.167969 39.261719 43.167969 39.421875 43.132812 39.554688 C 43.027344 39.957031 41.738281 39.972656 41.75 39.570312 C 41.761719 39.296875 41.453125 39.3125 41.386719 39.589844 C 41.316406 39.882812 41.496094 39.769531 37.832031 39.75 C 37.832031 39.277344 37.828125 39.300781 37.136719 38.59375 C 36.902344 39.160156 36.835938 39.359375 37.441406 39.839844 C 37.214844 39.839844 36.566406 39.816406 36.632812 39.921875 C 36.660156 39.96875 36.777344 40.007812 36.890625 40.007812 C 37.226562 40.007812 37.144531 40.527344 36.796875 40.597656 L 36.550781 40.644531 C 37.011719 40.777344 37.007812 40.699219 36.988281 41.308594 C 36.972656 41.863281 36.828125 42.027344 36.46875 41.890625 C 36.253906 41.808594 36.117188 41.914062 36.160156 42.132812 C 36.191406 42.3125 36.242188 42.335938 36.582031 42.34375 C 37.070312 42.355469 37.523438 42.480469 37.117188 42.496094 C 36.816406 42.503906 36.710938 42.5625 36.6875 43.058594 C 36.839844 42.582031 37.417969 42.53125 37.417969 42.792969 C 37.417969 43.292969 38.5625 42.949219 38.464844 43.207031 C 38.441406 43.269531 38.472656 43.367188 38.535156 43.417969 C 38.671875 43.535156 38.648438 44.070312 38.640625 45.074219 L 37.789062 45.074219 C 37.265625 45.070312 36.828125 44.433594 36.6875 43.8125 C 36.710938 44.960938 36.714844 45.082031 36.566406 45.082031 C 36.3125 45.082031 36.472656 44.171875 36.429688 43.273438 C 36.421875 43.101562 34.9375 43.128906 34.9375 43.300781 C 34.9375 43.402344 34.882812 43.417969 34.691406 43.375 C 34.269531 43.285156 34.566406 43.574219 34.289062 43.425781 C 34.097656 43.320312 33.925781 43.386719 33.609375 43.453125 C 33.449219 43.484375 33.367188 43.582031 33.28125 43.839844 C 33.164062 44.207031 33.160156 44.210938 32.683594 44.289062 C 32.421875 44.332031 32.363281 44.382812 32.320312 44.582031 C 32.253906 44.917969 32.027344 44.855469 32.097656 45.035156 C 32.199219 45.3125 31.957031 45.148438 31.800781 44.835938 C 31.511719 44.265625 31.3125 44.324219 31.632812 44.851562 C 31.847656 45.207031 31.847656 45.203125 31.476562 45.222656 C 31.167969 45.242188 31.152344 45.230469 31.015625 44.871094 C 30.9375 44.667969 30.824219 44.5 30.761719 44.5 C 30.671875 44.5 30.679688 44.574219 30.804688 44.847656 C 31.015625 45.328125 30.875 45.441406 30.785156 45.101562 C 30.640625 44.539062 30.101562 45 30.46875 45 C 30.710938 45 30.679688 45.332031 30.496094 45.328125 C 30.382812 45.328125 30.375 45.3125 30.460938 45.257812 C 30.703125 45.105469 30.167969 45.046875 29.695312 44.972656 L 29.980469 45.414062 C 29.308594 45.414062 29.398438 45.507812 29.398438 44.742188 L 28.964844 44.800781 C 28.363281 44.875 28.3125 45.332031 28.90625 45.332031 C 29.046875 45.332031 29.140625 45.296875 29.113281 45.253906 C 29.027344 45.113281 29.3125 45.152344 29.136719 44.9375 C 29.046875 44.828125 29.046875 44.8125 29.152344 44.847656 C 29.417969 44.933594 29.351562 45.402344 29.0625 45.476562 L 28.792969 45.546875 L 28.804688 46.113281 C 28.8125 46.867188 28.910156 46.679688 28.820312 46.992188 C 28.78125 47.132812 28.789062 47.261719 28.839844 47.3125 C 28.957031 47.429688 28.84375 47.578125 28.640625 47.578125 C 28.445312 47.578125 28.488281 47.664062 28.550781 47.992188 C 22.359375 48.023438 16.046875 47.992188 15.933594 47.980469 C 15.394531 47.921875 15.683594 48.242188 15.59375 50.875 C 13.457031 50.90625 13.746094 51.261719 13.882812 48.6875 L 10.675781 48.574219 L 9.683594 47.574219 C 9.683594 45.609375 9.707031 40.0625 9.445312 42.257812 C 9.421875 42.464844 7.433594 43.335938 7.398438 43.335938 C 7.257812 43.335938 6.933594 43.683594 6.25 43.878906 C 5.261719 44.160156 4.679688 44.574219 2.742188 44.625 C 2.609375 45.625 2.519531 45.371094 2.621094 45.632812 C 2.660156 45.742188 2.664062 45.832031 2.625 45.832031 C 2.527344 45.832031 2.457031 46.238281 2.546875 46.292969 C 2.585938 46.320312 2.617188 46.429688 2.617188 46.535156 C 2.617188 47 3.949219 47.265625 4.410156 46.894531 C 4.558594 46.773438 4.621094 46.960938 4.757812 46.796875 C 4.816406 46.726562 4.980469 46.691406 5.199219 46.707031 C 5.675781 46.738281 6.257812 46.601562 6.386719 46.429688 C 6.566406 46.179688 8.363281 46.34375 8.792969 46.226562 C 9.0625 46.148438 8.972656 46.328125 9.277344 46.328125 L 9.476562 46.328125 L 9.476562 48.574219 L 7.453125 48.574219 L 7.503906 50.613281 C 6.738281 51.019531 7.148438 50.992188 3.464844 50.96875 C 0.183594 50.949219 0.136719 50.949219 0.132812 51.113281 C 0.128906 51.59375 0.0546875 52.734375 0.0078125 52.996094 C -0.078125 53.539062 0.488281 54.339844 0.488281 54.800781 C 0.484375 55.097656 0.601562 55.050781 0.984375 55.9375 L 1.175781 57.40625 C 21.507812 58.492188 41.835938 59.023438 62.167969 58.996094 C 81.550781 58.972656 100.929688 58.441406 120.3125 57.40625 C 120.976562 55.855469 121.628906 53.523438 121.832031 53.265625 C 121.953125 53.109375 122.410156 52.070312 124.273438 48.574219 C 124.800781 47.589844 125.953125 45.488281 125.953125 45.230469 C 125.953125 45.125 126.15625 44.871094 126.457031 44.332031 C 126.925781 43.492188 127.078125 43.191406 126.964844 43.050781 Z M 69.925781 21.289062 C 69.789062 21.066406 69.796875 21.039062 69.988281 21.039062 C 70.109375 21.039062 70.152344 21.09375 70.152344 21.246094 C 70.152344 21.496094 70.066406 21.511719 69.925781 21.289062 Z M 70.113281 19.03125 L 70.136719 19.472656 C 70.167969 19.996094 70.09375 20.480469 69.988281 20.414062 C 69.949219 20.390625 69.894531 20.40625 69.867188 20.449219 C 69.867188 20.515625 69.402344 20.550781 69.230469 20.449219 C 69.125 20.382812 69.992188 19.199219 70.113281 19.03125 Z M 61.863281 5.128906 C 62.398438 5.863281 62.414062 5.886719 62.238281 5.851562 C 61.152344 5.636719 61.835938 5.898438 61.519531 5.898438 C 61.433594 5.898438 61.390625 5.816406 61.390625 5.648438 C 61.390625 5.417969 61.40625 5.40625 61.640625 5.453125 C 61.976562 5.519531 61.960938 5.34375 61.640625 5.273438 C 61.414062 5.222656 61.390625 5.1875 61.390625 4.890625 C 61.390625 4.472656 61.378906 4.46875 61.863281 5.128906 Z M 60.554688 4.496094 C 60.449219 4.664062 60.511719 4.390625 60.417969 4.539062 C 60.339844 4.660156 60.183594 4.574219 60.160156 4.398438 C 60.035156 3.382812 60.050781 3.289062 60.339844 3.503906 C 60.503906 3.625 60.65625 4.335938 60.554688 4.496094 Z M 37.460938 40.421875 C 37.378906 40.675781 37.253906 40.621094 37.253906 40.339844 C 37.253906 39.886719 37.558594 40.117188 37.460938 40.421875 Z M 37.4375 41.324219 C 37.355469 41.570312 37.171875 41.40625 37.171875 41.089844 C 37.171875 40.386719 37.5625 40.949219 37.4375 41.324219 Z M 37.480469 41.691406 C 37.429688 41.847656 37.171875 41.871094 37.171875 41.71875 C 37.171875 41.539062 37.527344 41.554688 37.480469 41.691406 Z M 9.3125 46.164062 C 8.851562 46.164062 9.476562 40.1875 9.476562 44.542969 C 9.476562 46.109375 9.472656 46.164062 9.3125 46.164062 Z M 9.769531 48.578125 C 9.6875 48.578125 9.644531 48.5 9.644531 48.355469 C 9.644531 48.109375 9.65625 48.113281 9.800781 48.390625 C 9.878906 48.542969 9.875 48.578125 9.769531 48.578125 Z M 10.238281 48.578125 C 10.125 48.578125 10.015625 48.488281 9.929688 48.320312 C 9.742188 47.957031 9.8125 47.949219 10.140625 48.285156 C 10.398438 48.554688 10.40625 48.578125 10.238281 48.578125 Z M 29.136719 46.035156 C 29.101562 46.328125 28.988281 46.210938 28.988281 45.882812 C 28.988281 45.503906 29.171875 45.761719 29.136719 46.035156 Z M 29.070312 46.414062 C 29.179688 46.414062 29.179688 46.828125 29.070312 46.828125 C 28.960938 46.828125 28.960938 46.414062 29.070312 46.414062 Z M 29.03125 47.417969 C 28.96875 47.316406 29.152344 47.191406 29.152344 47.363281 C 29.152344 47.511719 29.101562 47.53125 29.03125 47.417969 Z M 29.605469 45.929688 C 29.597656 46.308594 29.398438 46.339844 29.398438 45.960938 C 29.398438 45.550781 29.613281 45.585938 29.605469 45.929688 Z M 29.605469 47.410156 C 29.605469 47.410156 29.476562 47.601562 29.355469 47.40625 C 29.199219 47.152344 29.699219 47.261719 29.605469 47.410156 Z M 29.433594 47.070312 C 29.183594 47.0625 29.542969 46.957031 29.542969 47.027344 C 29.570312 47.054688 29.519531 47.074219 29.433594 47.070312 Z M 29.480469 46.828125 C 29.359375 46.828125 29.316406 46.773438 29.316406 46.621094 C 29.316406 46.253906 29.648438 46.421875 29.648438 46.753906 C 29.648438 46.792969 29.574219 46.828125 29.480469 46.828125 Z M 30.96875 45.414062 C 31.191406 45.414062 31.191406 45.574219 30.96875 45.558594 C 30.75 45.542969 30.75 45.414062 30.96875 45.414062 Z M 31.023438 45.871094 C 31.03125 46.023438 30.992188 46.082031 30.878906 46.082031 C 30.765625 46.082031 30.722656 46.019531 30.722656 45.871094 C 30.722656 45.582031 31.007812 45.582031 31.023438 45.871094 Z M 29.941406 47.410156 C 29.761719 47.410156 29.796875 47.246094 29.890625 47.246094 C 29.992188 47.246094 30.117188 47.410156 29.941406 47.410156 Z M 29.976562 47.125 C 29.976562 47.167969 29.8125 47.195312 29.8125 47.074219 C 29.8125 46.953125 29.976562 47.082031 29.976562 47.125 Z M 30.136719 46.414062 C 30.355469 46.414062 30.390625 46.445312 30.390625 46.621094 C 30.390625 46.789062 30.351562 46.828125 30.183594 46.828125 C 29.921875 46.828125 30.003906 46.746094 29.929688 46.542969 C 29.890625 46.441406 29.933594 46.414062 30.136719 46.414062 Z M 30.273438 47.160156 C 30.109375 47.160156 30 46.996094 30.222656 46.996094 C 30.453125 46.996094 30.425781 47.160156 30.273438 47.160156 Z M 30.40625 46.027344 C 30.085938 46.21875 29.8125 46.167969 29.8125 45.921875 C 29.8125 45.683594 29.835938 45.664062 30.09375 45.664062 C 30.351562 45.664062 30.578125 45.925781 30.40625 46.027344 Z M 30.507812 45.574219 C 30.257812 45.5625 30.617188 45.460938 30.617188 45.53125 C 30.644531 45.558594 30.597656 45.578125 30.507812 45.574219 Z M 30.6875 46.464844 C 31.019531 46.335938 31.300781 46.40625 31.300781 46.621094 C 31.300781 46.8125 31.269531 46.828125 30.929688 46.828125 C 30.542969 46.828125 30.378906 46.582031 30.6875 46.464844 Z M 30.585938 47.0625 C 30.53125 46.972656 31.300781 46.988281 31.300781 47.027344 C 31.300781 47.09375 30.625 47.125 30.585938 47.0625 Z M 31.515625 46.804688 C 31.449219 46.871094 31.460938 46.492188 31.523438 46.648438 C 31.519531 46.648438 31.566406 46.757812 31.515625 46.804688 Z M 31.878906 47.160156 C 31.769531 47.160156 31.769531 46.96875 31.878906 47.035156 C 32.003906 47.113281 31.972656 47.160156 31.878906 47.160156 Z M 32.039062 46.828125 C 31.917969 46.828125 32.050781 46.664062 32.089844 46.664062 C 32.132812 46.664062 32.160156 46.828125 32.039062 46.828125 Z M 32.5 46.632812 C 32.667969 46.699219 32.65625 46.746094 32.5 46.746094 C 32.332031 46.746094 32.335938 46.570312 32.5 46.632812 Z M 32.539062 47.078125 C 32.324219 47.078125 32.320312 46.914062 32.539062 46.914062 C 32.757812 46.914062 32.761719 47.078125 32.539062 47.078125 Z M 32.882812 46.746094 C 32.769531 46.746094 32.671875 46.578125 32.777344 46.578125 C 32.890625 46.578125 32.988281 46.746094 32.882812 46.746094 Z M 33.320312 47.113281 C 33.15625 47.171875 33.160156 47.171875 33.09375 47.109375 C 33.007812 47.023438 33.117188 46.914062 33.289062 46.914062 C 33.484375 46.914062 33.503906 47.039062 33.320312 47.113281 Z M 33.996094 46.878906 C 33.929688 47.054688 33.984375 47.082031 33.800781 47.070312 C 33.59375 47.0625 33.863281 47.039062 33.863281 46.863281 C 33.863281 46.707031 34.0625 46.699219 33.996094 46.878906 Z M 34.199219 46.113281 C 34.207031 45.949219 34.253906 46.066406 34.25 46.066406 C 34.308594 46.210938 34.191406 46.328125 34.199219 46.113281 Z M 34.199219 47.078125 C 34.066406 47.078125 34.277344 45.871094 34.277344 46.730469 C 34.277344 46.921875 34.242188 47.078125 34.199219 47.078125 Z M 34.605469 45.664062 C 34.777344 45.570312 34.933594 45.8125 34.765625 45.917969 C 34.699219 45.960938 34.703125 45.988281 34.785156 46.023438 C 34.847656 46.046875 34.800781 46.070312 34.6875 46.074219 C 34.429688 46.082031 34.371094 45.792969 34.605469 45.664062 Z M 34.839844 46.835938 C 34.839844 47.167969 34.441406 47.214844 34.441406 46.835938 C 34.441406 46.476562 34.523438 46.328125 34.71875 46.332031 C 34.851562 46.332031 34.867188 46.351562 34.785156 46.402344 C 34.601562 46.523438 34.867188 46.449219 34.839844 46.835938 Z M 38.246094 45.996094 C 38.484375 45.996094 38.574219 46.03125 38.574219 46.121094 C 38.574219 46.25 38.082031 46.304688 37.96875 46.191406 C 37.839844 46.0625 37.933594 45.996094 38.246094 45.996094 Z M 37.996094 45.746094 C 37.996094 45.609375 38.050781 45.582031 38.320312 45.582031 C 38.601562 45.582031 38.636719 45.601562 38.597656 45.746094 C 38.566406 45.871094 38.488281 45.914062 38.277344 45.914062 C 38.050781 45.914062 37.996094 45.882812 37.996094 45.746094 Z M 36.46875 45.496094 C 36.546875 45.367188 36.84375 45.582031 36.546875 45.582031 C 36.472656 45.582031 36.441406 45.542969 36.46875 45.496094 Z M 36.570312 45.679688 C 36.863281 45.738281 36.644531 46.109375 36.484375 45.945312 C 36.371094 45.828125 36.429688 45.652344 36.570312 45.679688 Z M 36.675781 46.246094 C 36.675781 46.355469 36.425781 46.355469 36.425781 46.246094 C 36.425781 46.136719 36.675781 46.136719 36.675781 46.246094 Z M 36.046875 43.730469 C 36.210938 43.761719 36.238281 43.800781 36.183594 43.941406 C 36.148438 44.039062 36.074219 44.132812 36.015625 44.152344 C 35.863281 44.203125 36.054688 44.035156 35.929688 43.960938 C 35.761719 43.855469 35.84375 43.691406 36.046875 43.730469 Z M 36.183594 44.523438 C 36.171875 44.644531 36.199219 45.085938 36.117188 45.070312 C 36.035156 45.058594 35.554688 44.96875 35.476562 44.953125 C 35.65625 44.785156 36.214844 44.226562 36.183594 44.523438 Z M 35.972656 45.230469 C 35.636719 45.226562 35.980469 45.136719 36.117188 45.195312 C 36.171875 45.214844 36.109375 45.234375 35.972656 45.230469 Z M 35.269531 45.621094 C 35.390625 45.699219 35.363281 45.746094 35.269531 45.746094 C 35.160156 45.746094 35.160156 45.554688 35.269531 45.621094 Z M 35.515625 46.996094 C 35.390625 47.191406 35.488281 46.914062 35.347656 46.914062 C 35.21875 46.914062 35.402344 47.078125 35.273438 47.078125 C 35.183594 47.078125 35.164062 46.992188 35.148438 46.476562 C 35.140625 46.304688 35.167969 46.164062 35.207031 46.164062 C 35.320312 46.164062 35.121094 46.035156 35.347656 45.972656 C 35.472656 45.941406 35.503906 45.976562 35.503906 46.152344 C 35.5 46.515625 35.625 46.820312 35.515625 46.996094 Z M 35.863281 46.914062 C 35.652344 46.914062 35.621094 46.511719 35.847656 46.785156 C 35.910156 46.863281 35.917969 46.914062 35.863281 46.914062 Z M 36.089844 46.890625 C 35.992188 46.574219 35.941406 46.144531 35.828125 46.070312 C 35.734375 46.007812 35.9375 45.898438 36.101562 46.003906 C 36.359375 46.167969 35.832031 45.980469 36.121094 46.199219 C 36.355469 46.378906 36.054688 46.363281 36.140625 46.5 C 36.328125 46.808594 36.132812 47.03125 36.089844 46.890625 Z M 36.121094 45.582031 C 35.789062 45.585938 36.429688 45.742188 35.992188 45.746094 C 35.824219 45.746094 35.765625 45.707031 35.765625 45.589844 C 35.765625 45.429688 36.136719 45.359375 36.226562 45.507812 C 36.25 45.546875 36.203125 45.582031 36.121094 45.582031 Z M 36.476562 46.933594 C 36.355469 46.8125 36.429688 46.496094 36.582031 46.496094 C 36.894531 46.496094 36.675781 47.136719 36.476562 46.933594 Z M 37.085938 47.160156 C 36.976562 47.160156 36.976562 46.886719 37.085938 46.953125 C 37.199219 47.023438 37.195312 47.160156 37.085938 47.160156 Z M 37.050781 46.394531 C 37.117188 46.328125 37.789062 46.457031 37.789062 46.539062 C 37.789062 46.679688 37.117188 46.691406 37.0625 46.550781 C 37.035156 46.484375 37.03125 46.414062 37.050781 46.394531 Z M 37.347656 46.988281 C 37.25 46.828125 37.261719 46.820312 37.515625 46.84375 C 38.113281 46.902344 37.585938 47.367188 37.347656 46.988281 Z M 37.417969 46.164062 C 36.871094 46.164062 36.867188 45.996094 37.417969 45.996094 C 37.964844 45.996094 37.96875 46.164062 37.417969 46.164062 Z M 37.417969 45.902344 C 36.855469 45.929688 36.878906 45.746094 37.417969 45.746094 C 37.964844 45.746094 37.96875 45.878906 37.417969 45.902344 Z M 37.644531 45.527344 C 37.234375 45.640625 37.003906 45.589844 37.003906 45.394531 C 37.003906 45.222656 37.035156 45.207031 37.417969 45.234375 C 37.855469 45.265625 37.988281 45.4375 37.644531 45.527344 Z M 38.265625 46.34375 C 38.550781 46.320312 38.574219 46.335938 38.574219 46.53125 C 38.574219 46.75 38.523438 46.769531 38.09375 46.6875 C 37.777344 46.625 37.902344 46.375 38.265625 46.34375 Z M 38.59375 47.199219 C 38.476562 47.316406 37.960938 47.140625 37.929688 46.972656 C 37.886719 46.75 38.539062 46.769531 38.597656 46.992188 C 38.625 47.097656 38.613281 47.199219 38.59375 47.199219 Z M 38.617188 45.332031 C 38.550781 45.441406 38.023438 45.441406 37.957031 45.332031 C 37.886719 45.21875 38.6875 45.21875 38.617188 45.332031 Z M 41.199219 39.976562 C 41.292969 39.917969 41.550781 40.128906 41.550781 40.261719 C 41.550781 40.371094 41.511719 40.359375 41.300781 40.1875 C 41.179688 40.089844 41.144531 40.011719 41.199219 39.976562 Z M 38.40625 40.070312 C 38.417969 39.90625 39.070312 40.007812 39.070312 40.171875 C 39.070312 40.414062 39.238281 40.28125 39.238281 40.464844 C 39.238281 40.558594 39.132812 40.589844 38.789062 40.589844 C 38.230469 40.589844 38.355469 40.59375 38.40625 40.070312 Z M 38.328125 40.753906 C 39.582031 40.753906 39.597656 40.722656 39.539062 40.941406 C 39.394531 41.472656 39.769531 41.421875 38.328125 41.421875 Z M 38.03125 40.007812 C 38.214844 40.007812 38.226562 40.027344 38.164062 40.25 C 38.125 40.382812 38.117188 40.515625 38.144531 40.542969 C 38.167969 40.566406 38.109375 40.589844 38.011719 40.589844 C 37.863281 40.589844 37.832031 40.542969 37.832031 40.296875 C 37.832031 40.046875 37.859375 40.007812 38.03125 40.007812 Z M 38.023438 41.421875 C 37.855469 41.421875 37.832031 41.382812 37.832031 41.089844 C 37.832031 40.738281 38.152344 40.5625 38.167969 40.902344 C 38.1875 41.304688 38.277344 41.421875 38.023438 41.421875 Z M 37.640625 42.71875 C 37.574219 42.546875 37.914062 42.242188 37.914062 42.683594 C 37.914062 42.863281 37.703125 42.890625 37.640625 42.71875 Z M 37.996094 41.835938 C 37.777344 41.835938 37.777344 41.585938 37.996094 41.585938 C 38.214844 41.585938 38.214844 41.835938 37.996094 41.835938 Z M 38.371094 42.835938 C 38.140625 42.835938 38.082031 42.804688 38.082031 42.675781 C 38.082031 42.535156 38.109375 42.527344 38.371094 42.609375 C 38.765625 42.730469 38.738281 42.835938 38.371094 42.835938 Z M 39.566406 41.710938 C 39.566406 41.84375 38.503906 41.90625 38.382812 41.78125 C 38.238281 41.636719 38.378906 41.585938 38.949219 41.585938 C 39.445312 41.585938 39.566406 41.613281 39.566406 41.710938 Z M 39.898438 40.339844 C 39.898438 40.714844 39.777344 40.636719 39.761719 40.25 C 39.746094 39.789062 39.910156 39.96875 39.90625 40.03125 C 39.898438 40.089844 39.898438 40.351562 39.898438 40.339844 Z M 40.210938 41.765625 C 40.183594 41.851562 40.164062 41.851562 40.113281 41.765625 C 40.042969 41.652344 40.113281 41.527344 40.195312 41.609375 C 40.195312 41.601562 40.242188 41.667969 40.210938 41.765625 Z M 40.109375 40.402344 C 40.074219 40.277344 40.074219 40.109375 40.109375 40.027344 C 40.167969 39.898438 40.179688 39.90625 40.207031 40.070312 C 40.265625 40.410156 40.191406 40.675781 40.109375 40.402344 Z M 40.972656 40.992188 C 40.695312 40.992188 40.9375 40.894531 41.078125 40.949219 C 41.132812 40.972656 41.085938 40.992188 40.972656 40.992188 Z M 40.421875 40.09375 C 40.347656 39.609375 41.179688 40.296875 41.570312 40.589844 C 41.011719 40.589844 40.503906 40.648438 40.421875 40.09375 Z M 41.75 40.007812 C 41.839844 40.007812 42.046875 39.851562 42.046875 40.03125 C 42.046875 40.097656 41.988281 40.179688 41.917969 40.207031 C 41.730469 40.277344 41.71875 40.273438 41.71875 40.132812 C 41.71875 40.0625 41.734375 40.007812 41.75 40.007812 Z M 41.753906 40.460938 C 41.957031 40.304688 42.046875 40.308594 42.046875 40.464844 C 42.046875 40.546875 41.96875 40.589844 41.820312 40.585938 C 41.601562 40.585938 41.601562 40.578125 41.753906 40.460938 Z M 41.765625 40.957031 C 41.695312 40.765625 41.699219 40.753906 41.882812 40.753906 C 41.992188 40.753906 42.046875 40.8125 42.046875 40.921875 C 42.046875 41.121094 41.839844 41.144531 41.765625 40.957031 Z M 42.382812 40.0625 C 42.6875 39.847656 43.035156 40.03125 43.039062 40.402344 C 43.039062 40.570312 43 40.589844 42.625 40.589844 C 42.160156 40.589844 42.03125 40.3125 42.382812 40.0625 Z M 43.207031 41.359375 C 43.207031 41.191406 43.164062 41.171875 42.839844 41.171875 C 42.367188 41.171875 42.214844 41.109375 42.214844 40.914062 C 42.214844 40.566406 43.242188 40.785156 43.3125 41.144531 C 43.355469 41.371094 43.207031 41.636719 43.207031 41.359375 Z M 45.597656 36.511719 C 45.695312 36.511719 45.820312 36.679688 45.648438 36.679688 C 45.476562 36.679688 45.5 36.511719 45.597656 36.511719 Z M 44.953125 37.761719 C 44.855469 37.761719 44.957031 37.34375 44.992188 37.34375 C 45.027344 37.34375 45.050781 37.761719 44.953125 37.761719 Z M 45.136719 37 C 45.019531 37.585938 44.800781 37.015625 44.949219 36.921875 C 45.125 36.8125 44.683594 36.699219 44.757812 36.40625 C 44.828125 36.128906 44.609375 36.425781 44.609375 36.265625 C 44.609375 36.183594 44.949219 36.222656 45.128906 36.320312 C 45.265625 36.398438 45.132812 37.011719 45.136719 37 Z M 45.914062 37.25 C 45.902344 37.242188 45.792969 37.222656 45.675781 37.203125 C 45.378906 37.15625 45.433594 36.761719 45.734375 36.761719 C 45.898438 36.761719 45.933594 36.804688 45.933594 37.011719 C 45.933594 37.148438 45.921875 37.257812 45.914062 37.25 Z M 47.75 40.671875 C 47.53125 40.671875 47.503906 40.644531 47.503906 40.421875 C 47.503906 40.261719 47.546875 40.171875 47.621094 40.171875 C 47.90625 40.171875 48 39.941406 48 40.371094 C 48 40.652344 47.980469 40.671875 47.75 40.671875 Z M 48.257812 41.253906 C 48.164062 41.253906 48.148438 40.089844 48.253906 40.089844 C 48.355469 40.089844 48.351562 41.253906 48.257812 41.253906 Z M 48.949219 35.402344 C 50.089844 35.335938 49.894531 35.265625 49.417969 35.265625 L 48.992188 35.265625 L 48.992188 34.636719 C 49.148438 34.632812 49.925781 34.59375 50.003906 34.714844 C 50.101562 34.863281 50.074219 35.265625 49.96875 35.265625 C 49.890625 35.265625 49.890625 35.285156 49.96875 35.363281 C 50.117188 35.515625 50.09375 36.070312 49.933594 36.128906 C 49.929688 36.164062 49.496094 36.199219 49.089844 36.121094 C 48.875 36.078125 48.90625 36.019531 48.949219 35.402344 Z M 50.066406 36.367188 C 50.066406 36.464844 49.226562 36.523438 48.992188 36.445312 C 48.457031 36.265625 50.066406 36.175781 50.066406 36.367188 Z M 48.628906 41.433594 C 48.570312 41.339844 48.640625 40.339844 48.652344 40.132812 C 49.644531 40.089844 49.695312 40.058594 49.792969 40.277344 C 49.9375 40.601562 49.847656 40.671875 49.269531 40.671875 C 48.507812 40.671875 48.722656 40.839844 49.316406 40.839844 C 49.8125 40.839844 50.078125 41.109375 49.824219 41.363281 C 49.71875 41.472656 48.6875 41.53125 48.628906 41.433594 Z M 49.40625 41.921875 C 49.039062 41.921875 49.152344 41.671875 49.273438 41.671875 C 49.578125 41.671875 49.875 41.921875 49.40625 41.921875 Z M 49.859375 41.921875 C 49.671875 41.921875 49.761719 41.742188 49.859375 41.742188 C 49.957031 41.742188 50.046875 41.921875 49.859375 41.921875 Z M 50.035156 39.660156 C 49.730469 40.15625 48.605469 39.707031 48.671875 39.113281 C 48.882812 37.214844 48.414062 37.28125 49.519531 37.253906 C 50.375 37.234375 50.390625 37.257812 50.394531 38.570312 C 50.398438 39.527344 50.386719 39.589844 50.238281 39.589844 C 50.074219 39.589844 50.027344 39.667969 50.035156 39.660156 Z M 50.214844 39.699219 C 50.300781 39.667969 50.375 39.695312 50.375 39.707031 C 50.441406 39.773438 50.0625 39.761719 50.214844 39.699219 Z M 50.398438 40.839844 C 50.398438 41.503906 50.238281 41.503906 50.25 40.839844 C 50.257812 40.175781 50.398438 40.175781 50.398438 40.839844 Z M 50.320312 41.921875 C 50.21875 41.921875 50.09375 41.753906 50.269531 41.753906 C 50.449219 41.753906 50.414062 41.921875 50.320312 41.921875 Z M 50.679688 35.167969 C 50.558594 35.445312 50.648438 35.742188 50.441406 36.0625 C 50.253906 36.351562 50.453125 36.183594 50.453125 36.386719 C 50.453125 36.515625 50.261719 36.566406 50.214844 36.449219 C 50.179688 36.367188 50.238281 34.707031 50.242188 34.589844 L 50.464844 34.613281 C 50.699219 34.640625 50.796875 34.894531 50.679688 35.167969 Z M 61.539062 11.652344 C 61.851562 11.621094 61.898438 11.472656 61.597656 11.472656 C 61.433594 11.472656 61.390625 11.429688 61.390625 11.261719 C 61.390625 11.09375 61.433594 11.054688 61.605469 11.054688 C 61.863281 11.054688 61.835938 10.859375 61.570312 10.820312 C 61.363281 10.789062 61.390625 10.648438 61.390625 10.320312 C 64.816406 10.296875 64.472656 10.003906 63.746094 11.929688 L 62.28125 11.945312 C 62.363281 11.34375 62.394531 11.257812 62.222656 11.257812 C 62.097656 11.257812 62.078125 11.308594 62.113281 11.570312 C 62.136719 11.746094 62.125 11.890625 62.085938 11.898438 C 62.078125 11.898438 61.582031 11.984375 61.40625 11.808594 C 61.289062 11.691406 61.300781 11.675781 61.539062 11.652344 Z M 63.75 13.058594 C 63.695312 12.964844 64.09375 12.832031 64.179688 12.917969 C 64.324219 13.0625 63.804688 13.144531 63.75 13.058594 Z M 64 13.632812 C 63.828125 13.632812 63.851562 13.46875 63.949219 13.46875 C 64.046875 13.46875 64.171875 13.632812 64 13.632812 Z M 64.117188 26.53125 L 63.546875 26.53125 C 63.550781 26.378906 63.617188 22.351562 63.703125 22.257812 C 63.789062 22.167969 63.929688 22.644531 63.945312 23.078125 C 63.984375 24.050781 64.117188 25.074219 64.117188 26.53125 Z M 63.761719 20.308594 C 63.703125 20.449219 63.703125 19.964844 63.761719 20.101562 C 63.785156 20.160156 63.785156 20.253906 63.761719 20.308594 Z M 63.808594 12.769531 L 63.910156 12.472656 C 64.035156 12.105469 64.234375 12.085938 64.269531 12.4375 C 64.296875 12.734375 64.253906 12.703125 63.808594 12.769531 Z M 62.546875 13.265625 C 62.546875 12.976562 62.578125 12.886719 62.675781 12.886719 C 62.839844 12.886719 62.78125 13.234375 62.78125 13.234375 C 62.746094 13.730469 62.546875 13.757812 62.546875 13.265625 Z M 62.671875 12.71875 C 62.5 12.71875 62.515625 12.347656 62.671875 12.21875 C 62.777344 12.132812 62.796875 12.160156 62.796875 12.417969 C 62.796875 12.628906 62.761719 12.71875 62.671875 12.71875 Z M 62.382812 12.925781 C 62.382812 13.253906 62.378906 13.230469 62.382812 13.230469 C 62.382812 13.660156 61.875 13.75 61.679688 13.355469 C 61.433594 12.859375 61.550781 12.910156 62.382812 12.925781 Z M 61.640625 13.925781 C 61.640625 14.09375 61.464844 14.089844 61.527344 13.925781 C 61.589844 13.753906 61.640625 13.765625 61.640625 13.925781 Z M 61.554688 12.71875 L 61.554688 12.15625 C 62.402344 12.171875 62.382812 12.128906 62.382812 12.445312 C 62.382812 12.761719 62.40625 12.71875 61.554688 12.71875 Z M 61.316406 13.835938 C 61.320312 13.671875 61.367188 13.785156 61.363281 13.785156 C 61.421875 13.929688 61.304688 14.046875 61.316406 13.835938 Z M 60.730469 3.898438 C 60.730469 3.789062 60.894531 3.789062 60.894531 3.898438 C 60.894531 4.011719 60.730469 4.011719 60.730469 3.898438 Z M 60.894531 4.648438 C 60.789062 4.648438 60.820312 4.457031 60.804688 4.339844 C 60.800781 4.277344 60.976562 4.128906 60.976562 4.433594 C 60.976562 4.550781 60.941406 4.648438 60.894531 4.648438 Z M 61.050781 0.667969 C 61.148438 0.511719 61.164062 1.402344 61.058594 1.402344 C 60.960938 1.402344 60.953125 0.824219 61.050781 0.667969 Z M 60.425781 12.089844 C 60.410156 12.089844 60.582031 12.171875 60.550781 12.417969 C 60.507812 12.761719 59.589844 11.289062 59.414062 11.011719 C 60.933594 11.039062 60.894531 11.007812 60.894531 11.261719 C 60.894531 11.429688 60.855469 11.472656 60.683594 11.472656 C 60.5625 11.472656 60.496094 11.507812 60.523438 11.554688 C 60.617188 11.710938 60.894531 11.539062 60.894531 11.804688 C 60.894531 11.894531 60.867188 11.964844 60.832031 11.960938 C 60.511719 11.910156 60.285156 11.980469 60.425781 12.089844 Z M 60.894531 13.925781 C 60.894531 14.144531 60.875 14.167969 60.785156 14.078125 C 60.699219 13.992188 60.71875 13.71875 60.8125 13.71875 C 60.859375 13.71875 60.894531 13.8125 60.894531 13.925781 Z M 60.820312 12.335938 C 60.828125 12.113281 60.925781 12.382812 60.863281 12.445312 C 60.835938 12.472656 60.816406 12.425781 60.820312 12.335938 Z M 59.492188 15.191406 C 60.078125 15.21875 59.882812 15.109375 59.699219 17.460938 C 59.667969 17.84375 59.488281 19.5 59.382812 20.457031 L 58.722656 20.457031 C 59.226562 14.703125 58.964844 15.164062 59.492188 15.191406 Z M 58.636719 26.476562 C 58.601562 26.4375 58.660156 21.363281 58.699219 21.3125 C 58.703125 21.304688 58.808594 21.320312 59.371094 21.464844 C 58.882812 26.429688 58.914062 26.253906 58.914062 26.25 C 58.910156 26.417969 58.726562 26.566406 58.636719 26.476562 Z M 57.972656 16.074219 C 58.03125 16.109375 58.066406 16.058594 58.070312 15.941406 C 58.078125 15.339844 58.265625 14.882812 58.488281 14.933594 C 58.910156 15.027344 58.996094 15.0625 58.957031 15.125 C 58.855469 15.289062 58.726562 16.484375 58.625 18.167969 C 58.492188 20.417969 58.492188 20.457031 58.3125 20.457031 C 58.203125 20.457031 58.164062 20.414062 58.195312 20.335938 C 58.296875 20.070312 58.359375 16.738281 58.261719 16.679688 C 58.210938 16.644531 58.167969 16.558594 58.167969 16.484375 C 58.167969 16.300781 57.839844 15.996094 57.972656 16.074219 Z M 57.589844 21.289062 C 57.371094 21.289062 57.371094 21.039062 57.589844 21.039062 C 57.808594 21.039062 57.808594 21.289062 57.589844 21.289062 Z M 57.996094 18.210938 C 57.949219 18.210938 57.933594 18.25 57.96875 18.304688 C 58.085938 18.5 57.945312 20.1875 57.949219 20.1875 C 57.894531 20.488281 57.816406 20.457031 57.515625 20.457031 L 57.515625 17.210938 C 57.644531 17.210938 57.867188 17.230469 57.984375 17.113281 C 58.0625 17.035156 58.085938 17.144531 58.085938 17.609375 C 58.085938 17.976562 58.050781 18.210938 57.996094 18.210938 Z M 58.320312 28.089844 C 58.316406 28.375 58.304688 28.609375 58.296875 28.609375 C 58.203125 28.609375 58.167969 28.410156 58.167969 27.910156 C 58.171875 27.042969 58.328125 27.460938 58.320312 28.089844 Z M 58.25 27.277344 C 58.140625 27.277344 58.140625 26.695312 58.25 26.695312 C 58.359375 26.695312 58.359375 27.277344 58.25 27.277344 Z M 58.386719 23.511719 C 58.332031 26.097656 58.359375 26.53125 58.246094 26.53125 C 58.101562 26.53125 58.296875 24.082031 58.191406 22.308594 C 58.128906 21.257812 58.132812 21.203125 58.28125 21.203125 C 58.433594 21.203125 58.4375 21.289062 58.386719 23.511719 Z M 58.75 26.628906 C 58.945312 26.605469 58.957031 26.625 58.925781 26.941406 C 58.898438 27.234375 58.867188 27.277344 58.691406 27.277344 C 58.378906 27.277344 58.433594 26.667969 58.75 26.628906 Z M 59.191406 27.765625 C 59.128906 28.113281 59.007812 28.449219 59 28.300781 C 58.996094 28.25 58.882812 28.078125 58.742188 27.929688 C 58.46875 27.625 58.449219 27.386719 58.707031 27.433594 C 58.945312 27.476562 58.992188 27.71875 58.992188 27.507812 C 58.992188 27.417969 59.039062 27.382812 59.121094 27.414062 C 59.273438 27.476562 59.191406 27.765625 59.191406 27.765625 Z M 59.324219 27.207031 C 59.324219 27.246094 59.246094 27.277344 59.148438 27.277344 C 58.882812 27.277344 59.074219 27.117188 59.074219 26.757812 C 59.074219 26.664062 59.140625 26.613281 59.253906 26.613281 C 59.539062 26.613281 59.324219 26.867188 59.324219 27.207031 Z M 59.515625 26.300781 C 59.417969 26.671875 59.136719 26.460938 59.183594 26.050781 C 59.265625 25.3125 59.589844 21.539062 59.667969 21.539062 C 60.382812 21.539062 60.332031 23.1875 59.515625 26.300781 Z M 60.5 22.03125 C 60.394531 22.742188 60.351562 21.664062 60.46875 21.738281 C 60.507812 21.761719 60.519531 21.894531 60.5 22.03125 Z M 61.171875 18.148438 C 61.183594 17.796875 61.164062 17.75 61 17.726562 C 60.828125 17.699219 60.8125 17.730469 60.8125 18.117188 C 60.8125 18.34375 60.773438 18.554688 60.730469 18.585938 C 60.460938 18.75 60.921875 18.871094 61.207031 18.964844 C 60.804688 20.574219 60.90625 20.40625 60.398438 20.46875 C 60.398438 18.511719 60.429688 17.484375 60.183594 17.734375 C 60.128906 17.789062 60.132812 20.265625 60.132812 20.429688 C 60.074219 20.433594 59.65625 20.453125 59.65625 20.414062 C 59.65625 20.410156 60.152344 16.371094 60.152344 15.457031 C 60.152344 15.253906 61.386719 15.578125 61.953125 15.714844 C 61.636719 17.035156 61.125 19.492188 61.171875 18.148438 Z M 62.382812 14.097656 C 62.382812 14.15625 61.917969 14.136719 61.859375 14.078125 C 61.703125 13.917969 61.824219 13.800781 62.144531 13.800781 C 62.632812 13.800781 62.382812 13.917969 62.382812 14.097656 Z M 62.601562 14.074219 C 62.503906 13.976562 62.546875 13.800781 62.671875 13.800781 C 62.917969 13.800781 62.75 14.222656 62.601562 14.074219 Z M 63.324219 12.136719 C 63.648438 12.136719 63.683594 12.15625 63.648438 12.304688 C 63.625 12.394531 63.582031 12.464844 63.550781 12.457031 C 63.523438 12.449219 63.378906 12.425781 63.230469 12.410156 C 62.804688 12.355469 62.882812 12.136719 63.324219 12.136719 Z M 63.441406 26.976562 C 63.460938 27.269531 63.351562 27.441406 63.25 27.273438 C 63.144531 27.105469 63.386719 26.15625 63.441406 26.976562 Z M 63.292969 26.085938 C 63.292969 25.464844 63.484375 25.457031 63.40625 26.050781 C 63.332031 26.640625 63.292969 26.652344 63.292969 26.085938 Z M 63.433594 25.261719 C 63.390625 25.675781 63.390625 24.21875 63.433594 24.636719 C 63.453125 24.808594 63.453125 25.089844 63.433594 25.261719 Z M 63.296875 27.949219 C 63.171875 27.71875 63.191406 27.527344 63.332031 27.527344 C 63.421875 27.527344 63.457031 27.617188 63.457031 27.820312 C 63.457031 28.148438 63.417969 28.179688 63.296875 27.949219 Z M 63.929688 26.679688 C 64.203125 26.730469 64.207031 27.234375 63.933594 27.308594 C 63.59375 27.402344 63.539062 27.355469 63.539062 26.980469 C 63.539062 26.691406 63.628906 26.621094 63.929688 26.679688 Z M 63.746094 28.609375 C 63.46875 28.609375 63.46875 28.359375 63.746094 28.359375 C 64.027344 28.359375 64.027344 28.609375 63.746094 28.609375 Z M 64.023438 28.046875 C 63.839844 28.398438 63.503906 28.167969 63.554688 27.722656 C 63.578125 27.511719 63.613281 27.484375 63.871094 27.484375 C 64.175781 27.484375 64.226562 27.667969 64.023438 28.046875 Z M 64.078125 14.050781 C 63.890625 14.050781 63.800781 13.898438 63.917969 13.78125 C 64 13.699219 64.285156 13.816406 64.285156 13.933594 C 64.285156 14.003906 64.199219 14.050781 64.078125 14.050781 Z M 64.316406 11.582031 C 64.265625 11.941406 64.210938 12.035156 64.101562 11.925781 C 64.042969 11.867188 64.457031 10.53125 64.316406 11.582031 Z M 64.902344 12.390625 C 64.753906 12.632812 64.734375 12.183594 64.863281 12.261719 C 64.910156 12.289062 64.925781 12.347656 64.902344 12.390625 Z M 64.914062 11.96875 C 64.808594 11.96875 64.78125 11.882812 64.789062 11.535156 C 64.796875 11.125 64.804688 11.117188 64.863281 11.386719 C 64.960938 11.863281 65.097656 11.96875 64.914062 11.96875 Z M 66.605469 14.132812 C 66.394531 14.132812 66.351562 14.101562 66.351562 13.9375 C 66.351562 13.664062 66.792969 13.675781 66.832031 13.949219 C 66.832031 14.082031 66.867188 14.132812 66.605469 14.132812 Z M 66.796875 13.445312 C 66.699219 13.808594 66.351562 13.566406 66.351562 13.140625 C 66.351562 13.003906 66.402344 12.96875 66.597656 12.96875 C 66.859375 12.96875 66.898438 13.0625 66.796875 13.445312 Z M 66.480469 12.1875 C 66.667969 12.113281 66.683594 12.121094 66.679688 12.28125 C 66.675781 12.484375 66.480469 12.820312 66.410156 12.75 C 66.296875 12.636719 66.351562 12.238281 66.480469 12.1875 Z M 66.042969 13.144531 C 65.78125 13.1875 65.605469 13.390625 65.605469 13.128906 C 65.605469 12.984375 65.652344 12.960938 65.875 12.984375 C 66.109375 13.007812 66.222656 13.117188 66.042969 13.144531 Z M 66 12.214844 C 66.0625 12.21875 66.101562 12.335938 66.101562 12.511719 C 66.101562 12.898438 65.582031 12.960938 65.441406 12.589844 C 65.234375 12.046875 65.445312 12.1875 66 12.214844 Z M 65.140625 12.71875 C 65.070312 12.71875 65.027344 12.625 65.027344 12.464844 C 65.027344 11.878906 65.378906 12.71875 65.140625 12.71875 Z M 65.1875 12.96875 C 65.378906 12.96875 65.402344 13.003906 65.480469 13.363281 C 65.535156 13.625 65.527344 13.632812 65.273438 13.632812 C 64.796875 13.632812 65.3125 13.46875 65.113281 13.34375 C 64.960938 13.25 65.015625 12.96875 65.1875 12.96875 Z M 65.316406 14.097656 C 65.132812 14.148438 65.027344 14.082031 65.027344 13.910156 C 65.027344 13.753906 65.574219 13.765625 65.636719 13.925781 C 65.699219 14.085938 65.5625 14.03125 65.316406 14.097656 Z M 68.167969 27.195312 C 68.035156 27.402344 68.136719 27.085938 68.035156 26.828125 C 68.003906 26.742188 68.03125 26.695312 68.121094 26.695312 C 68.3125 26.695312 68.261719 27.050781 68.167969 27.195312 Z M 68.253906 26.042969 C 68.253906 26.503906 68.066406 26.753906 67.96875 26.425781 C 67.707031 25.554688 67.792969 25.628906 68.253906 25.558594 Z M 69.78125 28.191406 C 69.589844 28.191406 69.574219 28.164062 69.574219 27.820312 C 69.574219 27.476562 69.589844 27.445312 69.78125 27.445312 C 69.972656 27.445312 69.988281 27.476562 69.988281 27.820312 C 69.988281 28.164062 69.972656 28.191406 69.78125 28.191406 Z M 69.945312 28.402344 C 69.945312 28.496094 69.574219 28.605469 69.574219 28.402344 C 69.574219 28.195312 69.945312 28.308594 69.945312 28.402344 Z M 69.78125 26.695312 C 69.957031 26.695312 69.988281 26.730469 69.988281 26.976562 C 69.988281 27.257812 69.878906 27.371094 69.679688 27.300781 C 69.464844 27.226562 69.554688 26.695312 69.78125 26.695312 Z M 69.328125 28.394531 C 69.328125 28.828125 68.730469 28.277344 69.160156 28.277344 C 69.253906 28.277344 69.328125 28.332031 69.328125 28.394531 Z M 69.328125 27.777344 C 69.328125 28.214844 68.914062 28.261719 68.605469 27.863281 C 68.242188 27.398438 68.4375 27.445312 69.328125 27.445312 Z M 69.328125 26.695312 C 69.328125 26.921875 69.351562 27.335938 69.222656 27.328125 C 68.449219 27.273438 68.417969 27.265625 68.417969 27.113281 C 68.417969 26.664062 68.015625 26.695312 69.328125 26.695312 Z M 68.410156 27.859375 C 68.496094 27.859375 68.628906 28.109375 68.457031 28.109375 C 68.292969 28.109375 68.316406 27.859375 68.410156 27.859375 Z M 68.449219 28.464844 C 68.3125 28.324219 68.3125 28.316406 68.449219 28.289062 C 69.019531 28.179688 68.894531 28.910156 68.449219 28.464844 Z M 68.996094 29.367188 C 68.996094 29.253906 69.160156 29.15625 69.160156 29.265625 C 69.160156 29.378906 68.996094 29.476562 68.996094 29.367188 Z M 69.042969 29.695312 C 69.015625 29.652344 69.03125 29.59375 69.078125 29.566406 C 69.175781 29.503906 69.328125 29.582031 69.328125 29.695312 C 69.328125 29.796875 69.101562 29.796875 69.042969 29.695312 Z M 69.96875 31.015625 C 69.71875 30.9375 69.648438 30.773438 69.863281 30.773438 C 70.035156 30.773438 69.988281 31.019531 69.96875 31.015625 Z M 69.746094 30.539062 C 69.507812 30.574219 69.484375 30.554688 69.265625 30.085938 C 69.246094 30.050781 69.402344 30.023438 69.613281 30.023438 C 69.972656 30.023438 69.988281 30.035156 69.988281 30.265625 C 69.988281 30.464844 69.949219 30.507812 69.746094 30.539062 Z M 69.699219 29.773438 C 69.316406 29.773438 69.246094 29.25 69.621094 29.15625 C 69.910156 29.082031 69.988281 29.152344 69.988281 29.488281 C 69.988281 29.757812 69.972656 29.773438 69.699219 29.773438 Z M 70.320312 31.023438 C 70.101562 31.023438 70.101562 30.773438 70.320312 30.773438 C 70.539062 30.773438 70.539062 31.023438 70.320312 31.023438 Z M 70.320312 30.523438 C 70.191406 30.523438 70.152344 30.46875 70.152344 30.273438 C 70.152344 30.078125 70.191406 30.023438 70.320312 30.023438 C 70.449219 30.023438 70.484375 30.078125 70.484375 30.273438 C 70.484375 30.46875 70.449219 30.523438 70.320312 30.523438 Z M 70.148438 29.753906 C 70.097656 29.550781 70.109375 29.179688 70.167969 29.140625 C 70.300781 29.058594 70.484375 29.285156 70.484375 29.535156 C 70.484375 29.730469 70.191406 29.917969 70.148438 29.753906 Z M 70.738281 29.152344 C 70.867188 29.234375 70.683594 29.441406 70.859375 29.441406 C 71 29.441406 71.058594 29.773438 70.816406 29.773438 C 70.675781 29.773438 70.648438 29.71875 70.648438 29.4375 C 70.648438 29.21875 70.679688 29.117188 70.738281 29.152344 Z M 70.730469 31.023438 C 70.621094 31.023438 70.621094 30.773438 70.730469 30.773438 C 70.839844 30.773438 70.839844 31.023438 70.730469 31.023438 Z M 71.167969 31.042969 C 70.832031 30.984375 70.941406 30.757812 71.289062 30.789062 C 71.488281 30.804688 71.601562 30.855469 71.601562 30.929688 C 71.601562 31.054688 71.464844 31.089844 71.167969 31.042969 Z M 71.21875 30.523438 C 70.679688 30.523438 70.871094 30.433594 70.765625 30.15625 C 70.722656 30.046875 70.785156 30.023438 71.136719 30.023438 C 71.367188 30.023438 71.5625 30.050781 71.570312 30.085938 C 71.644531 30.535156 71.636719 30.523438 71.21875 30.523438 Z M 71.808594 31.023438 C 71.703125 31.023438 71.820312 30.773438 71.855469 30.773438 C 71.894531 30.773438 71.921875 31.023438 71.808594 31.023438 Z M 71.851562 30.191406 C 71.808594 30.191406 71.683594 30.023438 71.800781 30.023438 C 71.925781 30.023438 71.894531 30.191406 71.851562 30.191406 Z M 72.695312 30.828125 C 72.828125 30.75 73.65625 30.824219 73.6875 30.921875 C 73.746094 31.097656 72.34375 31.035156 72.695312 30.828125 Z M 73.210938 30.535156 C 72.6875 30.566406 72.625 30.515625 72.800781 30.183594 C 72.960938 29.886719 73.707031 29.953125 73.707031 30.265625 C 73.707031 30.503906 73.699219 30.507812 73.210938 30.535156 Z M 74.335938 31.023438 C 73.925781 31.023438 73.652344 30.871094 74.019531 30.84375 C 74.476562 30.8125 74.738281 30.839844 74.765625 30.925781 C 74.785156 30.992188 74.648438 31.023438 74.335938 31.023438 Z M 74.039062 30.023438 C 74.15625 30.023438 74.203125 30.078125 74.203125 30.210938 C 74.203125 30.453125 74.109375 30.589844 73.976562 30.546875 C 73.792969 30.480469 73.847656 30.023438 74.039062 30.023438 Z M 74.527344 30.523438 C 74.328125 30.523438 74.285156 30.488281 74.285156 30.320312 C 74.285156 29.941406 74.625 29.972656 74.726562 30.359375 C 74.726562 30.453125 74.800781 30.523438 74.527344 30.523438 Z M 74.847656 30.273438 C 74.816406 30.046875 74.832031 30.023438 75.046875 30.023438 C 75.25 30.023438 75.277344 30.054688 75.277344 30.273438 C 75.277344 30.480469 75.246094 30.523438 75.082031 30.523438 C 74.925781 30.523438 74.875 30.46875 74.847656 30.273438 Z M 75.273438 31.023438 C 75.152344 31.023438 75.285156 30.855469 75.324219 30.855469 C 75.367188 30.855469 75.394531 31.023438 75.273438 31.023438 Z M 75.363281 29.773438 C 74.105469 29.773438 73.980469 29.792969 73.933594 29.617188 C 73.804688 29.113281 74.835938 29.191406 75.363281 29.191406 Z M 75.53125 30.253906 C 75.523438 29.929688 75.691406 30.023438 75.6875 30.085938 C 75.664062 30.328125 75.539062 30.464844 75.53125 30.253906 Z M 75.691406 31.023438 C 75.582031 31.023438 75.582031 30.773438 75.691406 30.773438 C 75.800781 30.773438 75.800781 31.023438 75.691406 31.023438 Z M 75.652344 29.773438 C 75.5625 29.773438 75.527344 29.6875 75.527344 29.484375 C 75.527344 29.28125 75.5625 29.191406 75.652344 29.191406 C 75.738281 29.191406 75.773438 29.28125 75.773438 29.484375 C 75.773438 29.6875 75.738281 29.773438 75.652344 29.773438 Z M 76.179688 31.023438 C 75.863281 31.023438 75.894531 30.824219 76.214844 30.789062 C 76.371094 30.769531 76.4375 30.800781 76.4375 30.890625 C 76.4375 30.980469 76.359375 31.023438 76.179688 31.023438 Z M 75.996094 30.550781 C 75.816406 30.371094 75.945312 30.023438 76.1875 30.023438 C 76.417969 30.023438 76.4375 30.046875 76.4375 30.316406 C 76.4375 30.597656 76.179688 30.734375 75.996094 30.550781 Z M 76.292969 29.765625 C 76.027344 29.753906 75.941406 29.679688 75.941406 29.46875 C 75.941406 29.308594 75.972656 29.269531 76.070312 29.308594 C 76.300781 29.394531 76.4375 29.285156 76.4375 29.566406 C 76.4375 29.710938 76.390625 29.773438 76.292969 29.765625 Z M 77.640625 29.253906 C 77.875 29.207031 77.824219 29.269531 77.824219 29.464844 C 77.789062 29.828125 77.429688 29.890625 77.429688 29.535156 C 77.429688 29.34375 77.472656 29.285156 77.640625 29.253906 Z M 77.683594 30 C 77.859375 30.046875 77.824219 30.164062 77.824219 30.304688 C 77.785156 30.730469 77.429688 30.703125 77.429688 30.273438 C 77.429688 29.996094 77.476562 29.945312 77.683594 30 Z M 77.199219 31.035156 C 77.078125 31.160156 76.976562 30.941406 77.078125 30.839844 C 77.199219 30.71875 77.300781 30.933594 77.199219 31.035156 Z M 77.070312 30.550781 C 76.957031 30.4375 77.011719 30.023438 77.140625 30.023438 C 77.226562 30.023438 77.261719 30.113281 77.261719 30.316406 C 77.261719 30.589844 77.195312 30.675781 77.070312 30.550781 Z M 77.261719 29.527344 C 77.261719 29.761719 77.1875 29.835938 77.070312 29.71875 C 76.96875 29.617188 77.011719 29.375 77.140625 29.328125 C 77.253906 29.28125 77.261719 29.394531 77.261719 29.527344 Z M 77.632812 31.023438 C 77.429688 31.023438 77.359375 30.910156 77.503906 30.820312 C 77.671875 30.710938 78.089844 31.023438 77.632812 31.023438 Z M 78.007812 29.191406 L 79.164062 29.191406 C 79.164062 29.808594 79.226562 29.773438 78.007812 29.773438 Z M 79.164062 30.589844 C 78.101562 30.585938 77.957031 30.625 78.019531 30.183594 C 78.042969 30.019531 78.097656 30 78.460938 30 C 79.261719 30.003906 79.164062 29.960938 79.164062 30.589844 Z M 79.203125 30.960938 C 79.136719 31.136719 78.007812 31.078125 78.007812 30.898438 C 78.007812 30.835938 78.070312 30.800781 78.152344 30.816406 C 78.503906 30.882812 79.265625 30.792969 79.203125 30.960938 Z M 86.140625 38.808594 C 86.046875 39.007812 86.042969 39.136719 86.042969 39.296875 C 86.089844 39.535156 85.902344 39.652344 85.792969 39.453125 C 85.671875 39.238281 86.054688 38.601562 85.972656 38.386719 C 85.9375 38.296875 85.976562 38.261719 86.097656 38.261719 C 86.308594 38.261719 86.320312 38.421875 86.140625 38.808594 Z M 87.878906 38.816406 C 87.878906 39.316406 87.867188 39.332031 87.460938 39.28125 C 87.164062 39.246094 87.203125 39.265625 87.222656 38.34375 L 87.820312 38.34375 C 87.871094 38.34375 87.878906 38.761719 87.878906 38.816406 Z M 90.207031 38.539062 C 90.097656 39.082031 90.109375 39.070312 89.746094 39.011719 C 89.410156 38.960938 89.363281 38.835938 89.496094 38.347656 C 89.582031 38.019531 89.820312 37.882812 89.945312 38.085938 C 89.972656 38.128906 90.0625 38.144531 90.144531 38.121094 C 90.285156 38.085938 90.289062 38.113281 90.207031 38.539062 Z M 125.578125 43.042969 C 124.445312 43.195312 123.554688 43.175781 123.554688 43.132812 C 123.554688 43.078125 125.507812 41.503906 125.574219 41.503906 C 125.648438 41.503906 125.582031 42.957031 125.578125 43.042969 Z M 125.539062 40.089844 C 125.429688 40.089844 125.429688 38.507812 125.539062 38.507812 C 125.648438 38.507812 125.648438 40.089844 125.539062 40.089844 Z M 126.015625 43.015625 C 125.914062 43.015625 125.78125 43.324219 125.792969 42.523438 C 125.804688 41.777344 125.75 41.796875 125.960938 42.457031 C 126.085938 42.84375 126.097656 42.964844 126.015625 43.015625 Z M 126.015625 43.015625 "/>
</g>
</svg>
