<?xml version="1.0" encoding="utf-8"?>
<svg version="1.1"
	 id="Layer_1" xmlns:cc="http://creativecommons.org/ns#" xmlns:dc="http://purl.org/dc/elements/1.1/" xmlns:rdf="http://www.w3.org/1999/02/22-rdf-syntax-ns#"
	 xmlns="http://www.w3.org/2000/svg" xmlns:xlink="http://www.w3.org/1999/xlink" x="0px" y="0px" viewBox="0 0 5000 2307.779"
	 enable-background="new 0 0 5000 2307.779" xml:space="preserve">
<path d="M4998.596,1683.909c-3.841-4.791-11.68,1.853-19.604-2.231c-20.062-10.341-26.773-50.404-26.773-140.644
	c0-40.573-1.099-73.752-2.441-73.72c-6.082,0.124-11.232,6.041-8.845,10.163c1.412,2.439,1.523,3.502,0.247,2.364
	c-3.177-2.833-71.096,26.906-120.769,42.643c-43.812,13.881-44.75,19.633-52.971,19.633c-7.67,0-21.176,12.434-19.173,17.652
	c0.837,2.183-1.049,5.575-4.192,7.538c-6.574,4.106-4.732,9.532-1.606,28.509c8.563-0.102,101.614-0.219,106.765-4.493
	c2.167-1.799,5.68-2.195,7.806-0.881c6.232,3.851,82.154-5.63,86.229-8.147c2.886-1.783,3.184,16.931,0.433,27.192
	c-2.496,9.304-82.838,71.657-93.231,79.941c-0.109,0.005-346.277,15.982-399.038,22.445c-16.426,2.012-27.482-8.92-12.881-12.738
	c3.281-0.858,5.966-3.879,5.966-6.713c0-8.441-2.152,2.603-17.737,2.761c-8.949,0.094-9.366,0.529-4.231,4.427
	c4.745,3.602,7.82,11.143,4.882,11.971c-17.224,4.855-31.731,2.786-31.731-4.526c0-6.381-1.958-8.27-9.764-9.415
	c-10.835-1.59-13.521,3.575-3.254,6.26c8.024,2.099,8.535,9.365,0.814,11.585c-13.034,3.746-19.065,8.972-16.241,1.612
	c3.003-7.824-6.428-8.923-75.271-8.764c-105.513,0.241,20.934-4.935-274.668-3.351c0.564-5.004,4.045-29.769,0.456-27.551
	c-1.567,0.968-2.86,4.969-2.893,8.891c-0.076,12.248-3.783,21.776-8.471,21.776c-10.562,0-0.78-30.461,12.431-38.711
	c5.365-3.351,5.848-2.156,5.848,14.467c0,23.014,6.509,24.265,6.509-12.976c0-17.799,1.394-28.158,4.068-30.241
	c5.277-4.11,41.35-11.121,45.146-8.774c5.246,3.242,38.593-7.116-37.01-8.097c-17.434-0.226-21.968-1.314-21.968-5.269
	c0-7.061-8.69-6.037-11.486-14.844c-2.323-7.321-12.122-8.174-17.632-1.535c-4.277,5.153-0.321,15.979,7.113,19.467
	c2.258,1.058-0.288,1.157-5.658,0.218c-52.782-9.228,16.936-0.867-167.209,0.547c-6.213-58.005-10.141-55.781,27.967-55.982
	c26.673-0.141,37.359-2.074,33.2-6.006c-2.008-1.897-64.569-3.122-73.795-8.06c-9.967-5.333-56.88-5.151-79.815-12.515
	c-16.129-5.179-29.381-0.355-27.428,9.984c0.835,4.424-37.807,2.988-39.455-1.466c-1.489-4.024-20.07-3.727-20.07,0.322
	c0,4.839-5.484,0.406-16.195,9.696c-9.421,8.172-13.365,5.845-9.558-5.642c6.738-20.33,22.33-72.399,25.635-72.399
	c1.394,0,3.505-7.323,4.692-16.273c2.112-15.92,2.399-16.272,13.245-16.272c13.708,0,17.349-4.876,7.556-10.117
	c-10.771-5.765-17.731-19.173-22.669-19.173c-5.49,0-52.961-23.29-55.541-27.249c-4.201-6.443,0.016-17.306-7.215-22.836
	c-3.502-2.68-4.921-12.446-5.489-37.786c-1.168-52.137-5.369-56.308-5.736-5.695c-0.178,24.612-1.618,44.75-3.199,44.75
	c-1.581,0-3.61,2.814-4.51,6.253c-1.843,7.05-15.395,4.148-32.27-6.909c-4.646-3.044-11.903-6.009-16.127-6.59
	c-27.33-3.755-5.407-18.79-17.573-18.79c-11.338,0,6.129,12.084-11.714,5.864c-12.502-4.358-14.314-9.317-7.92-21.681
	c11.705-22.634,7.377-19.983-50.209-19.983c-0.398-88.196-6.508-225.008-6.508,0h-52.072c-1.63-46.228-0.475-44.602-3.595,0h-54.987
	c-0.199,5.569-0.717,21.851-1.22,26.8c-0.501,4.951-28.892,5.033-57.011,6.036c-6.018-33.938-22.803-90.84-28.355-108.178
	c-4.625-14.441-5.548-15.264-20.152-17.947c-14.333-2.633-15.278-3.428-14.887-12.528c2.058-47.894-1.533-52.771,8.902-56.738
	c26.273-9.989,11.773-62.004-17.283-62.004c-23.179,0-39.677,47.89-20.106,58.364c7.838,4.195,11.411,16.49,4.792,16.49
	c-2.624,0-3.849,1.489-2.725,3.308c4.252,6.882,8.103-11.071,8.103,26.719v27.157c-47.003-1.229-52.072-1.338-52.072-6.74
	c0-3.409,3.436-4.882,11.391-4.882c15.1,0,15.203-6.509,0-6.509c-11.12,0-11.391-0.31-11.391-13.018
	c0-12.709,0.271-13.018,11.391-13.018c14.356,0,15.013-5.747,0.814-7.116c-17.073-1.646-18.017-22.174-1.02-22.174
	c12.137,0,27.397-6.509-25.83-6.509c-36.585,0-37.431-0.165-37.625-7.323c-1.59-58.81-2.384-64.408-10.681-75.285
	c-17.892-23.458-51.981-28.202-75.229-10.471l-11.528,8.792c-0.022-11.466,0.759-322.527-10.051-322.527
	c-2.957,0-2.772,289.423,5.346,406.813c-50.514,0-52.364,2.989-42.258-21.197c19.669-47.074-32.231-109.69-82.543-99.586
	c-10.017,2.012-19.19,5.239-20.385,7.172c-4.981,8.059-4.187-3.899-22.509,11.519c-41.213,34.679-17.583,85.82-27.103,85.82
	c-4.242,0,0.081,4.882,5.271,4.882c3.862,0,9.98,10.577-2.507,10.577c-13.876,0-4.701-10.78-10.738-16.814
	c-3.289-3.289-3.153-61.391-3.788-74.312c-0.319-6.5-6.697-5.695-72.413-5.695c0.852-14.041,1.746-41.784,7.284-54.748
	c4.177-9.777,4.074-11.117-1.065-13.993c-10.287-5.757-2.086-19.259-10.214-8.552c-13.041,17.18-26.126,3.969-34.65-34.986
	c-8.516-38.916-15.677-74.758-15.004-75.103c1.602-0.823,49.705-9.971,65.248-14.75c18.545-5.701,18.228-6.396,18.228,39.95
	c0,51.961,5.369,71.015,2.756-45.251l8.117-1.552c14.365-2.746,39.713,33.92,30.333,43.877c-4.932,5.236-3.779,60.948-3.779,88.628
	h19.094c0.484-40.399,1.749-97.424-1.117-69.972c-2.649,25.373-2.487-1.778-3.332-71.23l13.232-7.891
	c12.899-7.692,11.289-14.966-2.169-9.802c-9.896,3.797-17.939-78.932-8.256-84.916c3.657-2.26,2.592-72.907,2.57-80.012h-21.906
	c4.452,96.91,3.1,91.749-30.66,143.793c-2.453-115.093-8.558-99.194-7.622-38.835c0.552,35.608-0.361,48.077-3.935,53.699
	c-4.805,7.559-16.107,10.134-16.107,3.67c0-2.516-1.266-2.624-4.068-0.347c-6.272,5.098-64.808,5.126-68.04,0.033
	c-6.328-9.973-3.172-16.459,7.018-14.421c5.508,1.101,9.764,0.57,9.764-1.22c0-4.425-22.782-2.03-22.782-6.021
	c0-3.581-3.298-19.336-4.068-23.188c5.693,0,30.104,0.84,30.104-3.255c0-1.79-7.323-3.255-16.272-3.255
	c-19.01,0-22.469-6.966-6.265-12.615c5.504-1.919,9.079-4.991,7.944-6.827c-1.135-1.836,0.586-3.383,3.824-3.438
	c5.556-0.093,5.567-0.286,0.192-3.416c-3.929-2.289-5.695-7.373-5.695-16.4c0-11.706-0.771-12.973-7.323-12.043
	c-6.228,0.885-7.24,2.864-6.77,13.245c0.353,7.791-0.896,12.204-3.453,12.204c-3.965,0-6.333-7.922-16.542-55.326
	c-8.514-39.535-16.561-54.947-0.987-55.277c3.525-0.075,44.419-19.324,65.179-28.858c28.32-13.006,36.169-21.862,22.539-25.426
	c-20.307-5.31-14.734-62.927,6.086-62.927c6.678,0-6.365-36.995-15.792-44.792c-11.406-9.433,5.88,3.079,5.88-5.755
	c0-3.808-5.333-4.78-26.228-4.78c-16.657,0-25.494,1.188-24.217,3.254c1.106,1.79,5.952,3.301,10.769,3.358
	c13.662,0.161,1.932,1.214-5.1,17.105l-4.014,9.072l-60.236-1.872c-19.6-58.939-21.391-60.208-9.763-60.208
	c10.937,0,10.597-6.509,0.305-6.509c-6.229,0-7.483-1.332-6.129-6.509c0.936-3.58,4.423-6.509,7.748-6.509
	c8.911,0,15.102-15.333,13.468-33.359c-1.293-14.26-3.246-16.818-12.137-15.891c-5.908,0.616-4.293-15.364,2.142-21.188
	c5.323-4.817,11.901-5.604,41.953-5.023c33.773,0.653,35.641,0.346,35.641-5.861c0-8.824-163.783-10.458-167.156-1.668
	c-1.959,5.104,3.925,6.531,21.377,5.183c14.248-1.1,21.632,8.99,25.014,3.516c2.598-4.204,12.222,7.176,16.393,11.509l-7.982-1.526
	c-8.55-1.634-16.343,8.933-8.513,11.543c3.039,1.013,3.083,2.402,0.187,5.891c-2.084,2.511-3.074,4.565-2.2,4.565
	c3.766,0-6.209,21.987,1.173,31.712c5.912,7.79,5.611,9.202-1.964,9.202c-4.658,0-6.509-2.17-6.509-7.631
	c0-9.906-6.509-5.708-6.509,1.895c0,4.896-4.845,5.503-43.934,5.503c-36.437,0-62.344-3.768-36.615-5.325
	c7.15-0.433,7.158-0.475,0.345-1.808c-13.485-2.638-12.436-20.53,1.203-20.53c10.558,0,5.534-6.509-2.335-6.509
	c-14.317,0-11.507-17.792,3.227-20.435c7.971-1.43,7.955-1.468-0.814-1.903c-12.837-0.636-13.625-19.97-0.813-19.97
	c4.475,0,8.136-1.465,8.136-3.254c0-6.508-30.679,1.595-7.323-15.94c5.696-4.276,7.686-7.629,5.474-9.221
	c-3.816-2.747-3.963-16.886-0.239-22.912c1.482-2.398-0.709-4.577-5.916-5.884c-20.864-5.237-8.555-11.129,24.276-11.622
	c17.9-0.269,34.376-0.635,36.613-0.814c5.658-0.453,15.344,24.459,15.705,17.574c0.828-15.784-0.54-99.304,2.604-71.599
	c3.074,27.09,5.933,12.336,4.684-24.177c-1.151-33.655-4.28-47.636-4.28-19.125c0,15.828-0.275,16.311-8.382,14.761
	c-13.366-2.555-3.011-7.545-7.971-23.531c-3.578-11.532-2.348,4.423-4.389,42.97c-1.273,24.037,4.147,33.701,4.968,9.102
	c0.516-15.48,0.776-16.14,1.923-4.882c5.04,49.465-11.968,62.794-36.986,28.987c-33.588-45.387-40.231-45.192-26.456-47.845
	c6.278-1.21,6.046-1.474-1.627-1.854c-11.512-0.57-13.883-19.97-2.441-19.97c8.62,0,8.916-6.475-0.814-6.612
	c-7.305-0.103-7.302-0.121,1.008-7.447c12.194-10.751,10.52-50.435-1.926-45.659c-7.562,2.902-5.699-7.407,2.545-14.086
	c10.667-8.641,8.138-44.408-3.254-46.025c-5.691-0.808-7.323-3.165-7.323-10.577c0-14.165-4.382-11.615-12.672,7.372
	c-15.406,35.282,5.784,75.135-2.505,70.012c-1.668-1.031-5.16-0.529-7.76,1.115c-3.668,2.32-3.04,3.001,2.802,3.04
	c6.525,0.043,7.393,1.459,6.509,10.627c-0.769,7.979-2.419,10.342-6.715,9.621c-8.872-1.49-2.531,5.868-11.391,4.172
	c-23.979-4.589-29.427,5.03-28.848-13.455c0.204-6.527-1.273-12.445-3.283-13.151c-4.748-1.669-8.483,12.556-4.376,16.663
	c4.826,4.826,3.758,8.35-2.548,8.403c-4.179,0.035-3.537,1.14,2.413,4.15c7.049,3.567,8.749,7.916,13.018,33.311
	c6.133,36.482,6.039,36.354,25.903,35.461c16.128-0.725,26.193,14.361,12.604,18.891c-2.402,0.8-2.781,2.975-1.018,5.829
	c6.474,10.476,4.764,19.473-3.702,19.473c-10.899,0-6.073,6.509,2.45,6.509c9.865,0,7.232,17.508-2.849,18.94
	c-9.954,1.414-9.261,8.362-0.814,6.153c5.407-1.414,6.509-0.1,6.509,7.757c0,7.508-1.51,9.55-7.323,9.902
	c-9.771,0.591-9.754-0.025-0.005,1.853c14.176,2.731,13.571,21.215-0.808,24.674c-5.882,1.415-5.804,1.602,0.814,1.943
	c5.883,0.303,7.323,2.297,7.323,10.141c0,7.824-1.454,9.851-7.323,10.207l-7.323,0.443c11.703,2.254,14.645,1.442,14.645,13.68
	c0,9.52-0.865,10.633-7.018,9.025c-10.438-2.73-3.247,5.699,2.328,5.699c8.577,0,6.013,19.447-2.633,19.97l-7.323,0.443
	c11.969,2.305,14.645,1.411,14.645,14.205c0,9.736-0.902,11.097-6.235,9.405c-8.021-2.546-13.647,4.795-2.093,4.795
	c9.486,0,8.328,2.879,8.328,18.66l-79.735-0.76c-0.452,7.047-2.893,30.918,1.449,30.918c4.895,0,2.012-21.52,6.687-24.409
	c1.949-1.205,3.254,2.886,3.254,10.193c0,10.586,0.542,11.464,4.084,6.62c4.669-6.385,8.979,1.094,55.31,64.3
	c-11.88,35.287-13.198,40.458-13.531,28.917c-0.472-16.373-7.751-8.871-6.313-25.569c1.132-13.142-1.306-16.225-9.202-11.634
	c-3.966,2.306-4.437,3.487-1.418,3.553c9.235,0.202-4.124,32.644,5.396,32.644c2.601,0,4.728,2.843,4.728,6.317
	c0,7.327-5.115,11.59-8.104,6.754c-2.76-4.467-12.385-4.243-9.796-0.053c3.223,5.214-109.026,1.939-109.026,5.096
	c0,15.288,27.817,18.393,42.958,21.537c-2.968,19.794-5.14,44.967-18.485,44.967c-16.05,0-28.677,32.068-16.58,42.107
	c5.736,4.761,2.39,3.435,1.87,133.661h-8.95c-16.562,0.092-18.064,4.736-4.087,12.591c7.17,4.03,13.217,9.796,13.437,12.814
	c1.421,19.477-0.324,47.364-3.071,49.062c-7.871,4.864-3.141,85.029,5.14,87.107c10.6,2.661,12.015,0.153,12.808-22.709
	c1.223-35.252,6.176-67.292,1.424-67.292c-5.698,0-5.24,57.869-6.323,10.549c-0.659-28.789,12.886-57.323,19.388-40.841
	c4.442,11.263,3.223,196.614-1.29,196.028c-17.137-2.225-11.961,6.752-1.275,6.752c10.067,0,8.232,20.366-2.294,25.459l-7.008,3.391
	c17.427,0.52,15.041-4.316,13.018,44.378c-20.389,0.687-50.418,3.924-50.463-10.692c-0.111-34.315-15.162-29.947-37.408-28.575
	c-5.082-459.084-8.308-709.788-11.37-265.03c-1.891,274.689-2.419,284.26-16.601,300.64c-6.052,6.99-19.218-1.118-19.268-11.865
	c-0.109-23.814-15.401-32.798-36.556-21.476c-5.224,2.796-5.705,0.78-5.688-23.911c0.151-251.315-34.521-707.703-19.547-401.232
	c1.837,37.59,4.742,91.777,6.457,120.417c5.141,85.875,7.423,313.145,3.171,315.772c-2.114,1.307-2.77,5.729-1.563,10.538
	c2.783,11.089-2.156,13.698-26.231,13.76h-19.797c-20.939,101.453-18.739,104.049-27.281,101.815
	c-7.673-2.006-8.219,3.575-1.593,16.278c4.186,8.025,4.036,12.237-1.336,37.427c-15.497,72.669-12.11,72.32-18.066,72.32
	c-2.685,0-4.882,1.464-4.882,3.255c0,4.437-63.858,3.262-73.226,3.262c-0.149,81.018,2.733,79.781-16.803,73.268
	c-6.388-2.13,4.377-883.701-3.537-875.787c-4.207,4.206-3.449,431.038-9.41,503.093c-1.11,13.425-1.965,25.873-1.899,27.663
	c5.947,161.783-3.673,362.877-17.36,362.877c-2.579,0-4.786,1.831-4.905,4.068c-3.401,64.307-5.322,57.161,38.675,58.8
	c0.562,54.682,4.591,54.164-29.13,54.243c-18.874,0.043-21.802-0.769-23.29-6.459c-1.234-4.718-0.1-6.509,4.123-6.509
	c8.563,0,11.178-16.532,2.955-18.682c-10.173-2.66-3.76-16.142-9.032-7.82c-8.911,14.064-6.031-27.307,4.943-71.003
	c8.047-32.04,6.428-41.993-7.741-47.601c-20.333-8.048-31.532-14.973-53.127-22.569c-7.922-2.786-19.53-8.385-25.795-12.442
	c-43.22-27.985-65.352-24.979-57.947,7.872c5.099,22.619-4.884,55.02-8.884,95.764c-2.345,23.895-7.469,58.752-4.274,64.461
	c1.366,2.442,1.349,8.708-0.039,13.925c-4.167,15.665-54.984,16.236-54.421,0.611c0.386-10.703-11.811-10.079-14.424,0.739
	c-2.743,11.356,4.359,7.026-139.898,6.196c0-18.429-0.165-17.508-27.31-45.167c-9.295,22.105-11.921,29.985,11.915,48.734
	c-8.884,0-34.367-0.906-31.796,3.255c1.106,1.79,5.679,3.255,10.162,3.255c13.198,0,9.971,20.364-3.653,23.053l-9.763,1.927
	c18.195,5.1,17.96,2.158,17.306,25.9c-0.601,21.817-6.387,28.235-20.553,22.799c-8.43-3.235-13.794,0.943-12.163,9.473
	c1.344,7.033,3.302,8.011,16.604,8.298c19.338,0.416,37.167,5.351,21.173,5.86c-11.864,0.378-15.984,2.709-16.965,22.035
	c6.028-18.537,28.769-20.622,28.769-10.359c0,19.629,45.047,6.122,41.203,16.136c-0.969,2.526,0.29,6.296,2.798,8.378
	c5.375,4.461,4.427,25.502,4.187,64.762h-33.645c-20.618-0.158-37.748-25.137-43.341-49.409c0.95,44.943,1.103,49.679-4.74,49.675
	c-9.935-0.007-3.627-35.624-5.319-70.79c-0.325-6.737-58.777-5.671-58.777,1.072c0,4.018-2.131,4.672-9.764,2.996
	c-16.526-3.63-4.82,7.757-15.746,1.909c-7.531-4.033-14.38-1.515-26.83,1.075c-6.347,1.32-9.49,5.037-12.839,15.187
	c-4.735,14.346-4.831,14.417-23.621,17.544c-10.297,1.713-12.628,3.591-14.197,11.437c-2.632,13.161-11.595,10.741-8.88,17.815
	c4.114,10.721-5.512,4.299-11.681-7.792c-11.419-22.384-19.15-20.014-6.634,0.514c8.487,13.92,8.539,13.795-6.111,14.619
	c-12.127,0.682-12.807,0.164-18.152-13.832c-3.054-7.997-7.557-14.541-10.007-14.541c-3.503,0-3.145,2.922,1.675,13.688
	c8.394,18.749,2.794,23.147-0.663,9.807c-5.691-21.961-26.959-3.968-12.484-3.968c9.568,0,8.289,13.035,1.006,12.968
	c-4.437-0.039-4.719-0.668-1.28-2.848c9.481-6.007-11.553-8.191-30.269-11.183l11.359,17.336c-26.468,0-22.932,3.653-22.932-26.26
	l-17.086,2.18c-23.718,3.027-25.7,20.826-2.318,20.826c5.514,0,9.183-1.363,8.153-3.03c-3.416-5.527,7.784-4.01,0.833-12.434
	c-3.535-4.284-3.428-4.861,0.656-3.528c10.546,3.442,7.896,21.701-3.58,24.674l-10.48,2.716l0.33,22.188
	c0.44,29.56,4.245,22.186,0.736,34.419c-1.586,5.532-1.322,10.503,0.665,12.49c4.592,4.592,0.261,10.376-7.769,10.376
	c-7.649,0-6.048,3.392-3.586,16.272c-243.802,1.127-492.324-0.11-496.794-0.576c-21.098-2.2-9.825,10.297-13.26,113.365
	c-84.228,1.082-72.805,15.135-67.452-85.694l-126.191-4.385l-39.054-39.069c0-76.868,0.834-293.947-9.357-208.029
	c-0.957,8.072-79.27,42.134-80.589,42.134c-5.576,0-18.373,13.627-45.225,21.267c-38.92,11.074-61.851,27.264-138.207,29.178
	c-5.224,39.139-8.631,29.194-4.755,39.389c1.631,4.291,1.709,7.802,0.171,7.802c-3.852,0-6.6,16.017-3.117,18.169
	c1.55,0.958,2.818,5.217,2.818,9.464c0,18.17,52.471,28.574,70.643,14.008c5.843-4.684,8.295,2.628,13.653-3.826
	c2.303-2.775,8.806-4.076,17.455-3.491c18.686,1.263,41.67-4.094,46.627-10.867c7.146-9.762,77.821-3.297,94.828-8.023
	c10.633-2.954,7.055,4.093,18.974,4.093h7.944v87.872h-79.735l1.957,79.747c-30.145,15.782-14.003,14.743-158.986,13.837
	c-129.072-0.807-130.994-0.724-131.076,5.69c-0.241,18.844-3.216,63.352-4.927,73.712c-3.494,21.155,18.907,52.511,18.778,70.547
	c-0.083,11.601,4.477,9.788,19.579,44.502l7.506,57.339c800.466,42.52,1600.892,63.271,2401.277,62.256
	c763.083-0.968,1526.128-21.72,2289.137-62.256c26.217-60.673,51.82-151.817,59.89-161.978c4.822-6.073,22.681-46.7,96.144-183.397
	c20.737-38.586,66.041-120.854,66.041-130.907c0-4.109,8.13-13.997,19.954-35.073
	C4997.121,1701.256,5003.027,1689.436,4998.596,1683.909z M2752.972,832.693c-5.422-8.682-5.138-9.808,2.472-9.808
	c4.773,0,6.509,2.17,6.509,8.136C2761.952,840.82,2758.454,841.471,2752.972,832.693z M2760.326,744.386l1.017,17.282
	c1.203,20.42-1.796,39.344-5.839,36.846c-1.576-0.974-3.746-0.345-4.823,1.397c0,2.512-18.342,3.959-25.052-0.15
	C2721.471,797.215,2755.664,750.953,2760.326,744.386z M2435.507,200.462c21.181,28.773,21.676,29.721,14.832,28.38
	c-42.73-8.377-15.838,1.724-28.289,1.724c-3.458,0-5.074-3.082-5.074-9.682c0-9.022,0.665-9.549,9.763-7.729
	c13.324,2.665,12.709-4.206,0-6.997c-8.823-1.938-9.763-3.373-9.763-14.904C2416.976,174.891,2416.514,174.661,2435.507,200.462z
	 M2384.014,175.803c-4.101,6.468-1.66-4.198-5.414,1.706c-2.983,4.692-9.216,1.274-10.071-5.523
	c-4.999-39.74-4.249-43.425,7.12-34.986C2382.037,141.741,2388.018,169.488,2384.014,175.803z M1474.795,1581.212
	c-3.108,9.793-8.127,7.765-8.127-3.284C1466.668,1560.185,1478.614,1569.178,1474.795,1581.212z M1473.895,1616.461
	c-3.22,9.661-10.48,3.258-10.48-9.243C1463.415,1579.826,1478.802,1601.737,1473.895,1616.461z M1475.621,1630.813
	c-2.05,6.158-12.206,7.033-12.206,1.052C1463.415,1624.898,1477.403,1625.462,1475.621,1630.813z M366.627,1805.743
	c-18.198,0,6.509-233.835,6.509-63.463C373.136,1803.573,372.913,1805.743,366.627,1805.743z M384.643,1900.124
	c-3.243,0-4.996-3.046-4.996-8.679c0-9.541,0.579-9.414,6.183,1.356C388.986,1898.87,388.783,1900.124,384.643,1900.124z
	 M403.15,1900.124c-4.604,0-8.876-3.505-12.269-10.066c-7.29-14.098-4.502-14.525,8.34-1.276
	C409.332,1899.214,409.647,1900.124,403.15,1900.124z M1147.148,1800.777c-1.383,11.454-5.95,6.857-5.95-5.991
	C1141.198,1779.983,1148.44,1790.072,1147.148,1800.777z M1144.452,1815.507c4.299,0,4.299,16.272,0,16.272
	C1140.153,1831.78,1140.153,1815.507,1144.452,1815.507z M1142.964,1854.786c-2.468-3.993,4.743-8.86,4.743-2.044
	C1147.707,1858.458,1145.754,1859.3,1142.964,1854.786z M1165.619,1796.561c-0.356,14.848-8.148,16.107-8.148,1.317
	C1157.47,1781.8,1165.941,1783.121,1165.619,1796.561z M1165.621,1854.538c0-0.1-5.155,7.502-9.911-0.193
	C1149.598,1844.457,1169.265,1848.641,1165.621,1854.538z M1158.827,1841.286c-9.903-0.409,4.272-4.502,4.272-1.709
	C1164.18,1840.659,1162.257,1841.426,1158.827,1841.286z M1160.725,1831.78c-4.773,0-6.509-2.17-6.509-8.136
	c0-14.414,13.018-7.731,13.018,5.148C1167.234,1830.435,1164.305,1831.78,1160.725,1831.78z M1219.305,1776.452
	c8.667,0,8.663,6.268,0,5.614C1210.619,1781.412,1210.698,1776.452,1219.305,1776.452z M1221.402,1794.354
	c0.345,5.978-1.165,8.134-5.695,8.134c-4.406,0-6.165-2.321-6.165-8.136C1209.542,1783.035,1220.749,1783.037,1221.402,1794.354z
	 M1178.817,1854.561c-7.05,0-5.714-6.509-2.011-6.509C1180.724,1848.052,1185.644,1854.561,1178.817,1854.561z M1180.252,1843.363
	c0,1.635-6.509,2.785-6.509-2.011C1173.743,1836.628,1180.252,1841.68,1180.252,1843.363z M1186.413,1815.507
	c8.616,0,10.112,1.203,10.112,8.136c0,6.509-1.627,8.136-8.136,8.136c-10.306,0-7.061-3.176-10.112-11.125
	C1176.736,1816.642,1178.529,1815.507,1186.413,1815.507z M1191.835,1844.798c-6.469,0-10.73-6.509-2.011-6.509
	C1198.942,1838.289,1197.801,1844.798,1191.835,1844.798z M1197.032,1800.475c-12.591,7.358-23.29,5.411-23.29-4.237
	c0-9.219,0.883-10.022,11.011-10.022C1194.992,1786.216,1203.843,1796.495,1197.032,1800.475z M1201.135,1782.704
	c-9.903-0.409,4.271-4.502,4.271-1.709C1206.487,1782.077,1204.565,1782.844,1201.135,1782.704z M1208.181,1817.483
	c13.133-5.04,24.142-2.23,24.142,6.161c0,7.473-1.193,8.136-14.645,8.136C1202.426,1831.78,1196.027,1822.147,1208.181,1817.483z
	 M1204.225,1840.839c-2.158-3.492,28.099-2.806,28.099-1.265C1232.324,1842.129,1205.762,1843.325,1204.225,1840.839z
	 M1240.799,1830.899c-2.586,2.586-2.156-12.267,0.257-6.238C1240.956,1824.661,1242.752,1828.946,1240.799,1830.899z
	 M1255.105,1844.798c-4.348,0-4.33-7.558,0-4.882C1259.937,1842.902,1258.791,1844.798,1255.105,1844.798z M1261.422,1831.78
	c-4.758,0,0.368-6.509,2.011-6.509C1265.069,1825.271,1266.218,1831.78,1261.422,1831.78z M1279.514,1824.094
	c6.659,2.556,6.242,4.431,0,4.431C1272.991,1828.525,1273.019,1821.601,1279.514,1824.094z M1281.141,1841.543
	c-8.602,0-8.616-6.509,0-6.509C1289.743,1835.034,1289.759,1841.543,1281.141,1841.543z M1294.543,1828.525
	c-4.436,0-8.213-6.509-4.023-6.509C1294.954,1822.016,1298.737,1828.525,1294.543,1828.525z M1311.793,1842.822
	c-6.354,2.437-6.322,2.439-8.866-0.106c-3.393-3.393,0.905-7.682,7.698-7.682
	C1318.228,1835.034,1318.983,1840.064,1311.793,1842.822z M1338.443,1833.673c-2.673,6.965-0.545,7.932-7.671,7.613
	c-8.121-0.366,2.441-1.339,2.441-8.151C1333.214,1827.027,1341.09,1826.776,1338.443,1833.673z M1346.488,1803.845
	c0.265-6.441,2.066-1.967,1.966-1.967C1350.738,1807.585,1346.144,1812.198,1346.488,1803.845z M1346.477,1841.543
	c-5.339,0,3.009-47.219,3.009-13.561C1349.486,1835.441,1348.132,1841.543,1346.477,1841.543z M1362.381,1786.282
	c6.868-3.676,12.979,5.775,6.374,9.857c-2.678,1.655-2.48,2.806,0.703,4.071c2.44,0.971,0.72,1.881-3.821,2.021
	C1355.527,1802.546,1353.208,1791.19,1362.381,1786.282z M1371.611,1831.994c0,13.023-15.616,14.926-15.616,0.052
	c0-14.123,3.141-19.799,10.925-19.744c5.153,0.037,5.822,0.78,2.559,2.848C1362.196,1819.766,1372.755,1816.977,1371.611,1831.994z
	 M1505.702,1799.234c9.402,0,13.018,1.356,13.018,4.882c0,5.01-19.368,7.211-23.867,2.712
	C1489.824,1801.798,1493.486,1799.234,1505.702,1799.234z M1495.938,1789.47c0-5.398,2.17-6.509,12.713-6.509
	c11.111,0,12.499,0.82,11.011,6.509c-1.279,4.891-4.439,6.509-12.713,6.509C1498.108,1795.979,1495.938,1794.697,1495.938,1789.47z
	 M1435.762,1779.653c3.16-5.113,14.846,3.308,3.03,3.308C1436.001,1782.961,1434.638,1781.473,1435.762,1779.653z
	 M1439.798,1786.835c11.563,2.226,2.971,16.726-3.458,10.297C1431.869,1792.661,1434.188,1785.755,1439.798,1786.835z
	 M1443.866,1808.997c0,4.306-9.764,4.3-9.764,0C1434.103,1804.692,1443.866,1804.697,1443.866,1808.997z M1419.228,1710.522
	c6.468,1.236,7.448,2.754,5.385,8.331c-1.387,3.751-4.417,7.451-6.733,8.223c-5.974,1.991,1.557-4.573-3.251-7.544
	C1407.926,1715.389,1411.195,1708.986,1419.228,1710.522z M1424.583,1741.547c-0.498,4.812,0.61,22.033-2.685,21.458
	c-3.118-0.547-22.043-3.992-25.222-4.57C1403.714,1751.886,1425.779,1729.989,1424.583,1741.547z M1416.203,1769.309
	c-13.123-0.163,0.412-3.664,5.757-1.501C1424.163,1768.7,1421.572,1769.374,1416.203,1769.309z M1388.539,1784.589
	c4.831,2.985,3.685,4.882,0,4.882C1384.191,1789.47,1384.209,1781.913,1388.539,1784.589z M1398.247,1838.289
	c-4.865,7.666-1.083-3.255-6.645-3.255c-5.047,0,2.177,6.509-2.87,6.509c-3.605,0-4.329-3.44-4.967-23.595
	c-0.212-6.712,0.862-12.204,2.386-12.204c4.353,0-3.498-5.062,5.451-7.402c5.007-1.309,6.224,0.069,6.139,6.953
	C1397.569,1819.498,1402.562,1831.491,1398.247,1838.289z M1411.912,1835.034c-8.292,0-9.525-15.647-0.656-4.96
	C1413.823,1833.167,1414.07,1835.034,1411.912,1835.034z M1420.836,1834.221c-3.803-12.429-5.862-29.211-10.272-32.092
	c-3.676-2.402,4.35-6.737,10.817-2.643c10.086,6.385-10.691-0.969,0.713,7.676c9.185,6.964-2.564,6.449,0.75,11.812
	C1430.227,1830.923,1422.531,1839.76,1420.836,1834.221z M1422.09,1783.011c-13.141,0.112,12.175,6.313-5.074,6.41
	c-6.599,0.037-8.95-1.553-8.95-6.052c0-6.399,14.591-9.015,18.151-3.255C1427.186,1781.68,1425.328,1782.978,1422.09,1783.011z
	 M1436.048,1835.895c-4.763-4.762-1.761-17.133,4.157-17.133C1452.484,1818.762,1443.903,1843.75,1436.048,1835.895z
	 M1460.139,1844.798c-4.332,0-4.32-10.806,0-8.136C1464.463,1839.334,1464.362,1844.798,1460.139,1844.798z M1458.69,1814.786
	c2.673-2.672,29.113,2.415,29.113,5.602c0,5.481-26.564,5.931-28.654,0.485C1458.15,1818.272,1457.943,1815.532,1458.69,1814.786z
	 M1470.442,1837.943c-3.86-6.18-3.44-6.534,6.62-5.567C1500.541,1834.632,1479.706,1852.777,1470.442,1837.943z M1473.157,1805.743
	c-21.592,0-21.703-6.509,0-6.509C1494.748,1799.234,1494.86,1805.743,1473.157,1805.743z M1473.157,1795.559
	c-22.21,1.014-21.186-6.088,0-6.088C1494.713,1789.47,1494.858,1794.568,1473.157,1795.559z M1482.106,1780.91
	c-16.203,4.342-25.222,2.457-25.224-5.271c-0.002-6.768,1.23-7.237,16.272-6.195
	C1490.388,1770.638,1495.587,1777.297,1482.106,1780.91z M1506.543,1812.87c11.159-0.926,12.177-0.313,12.177,7.323
	c0,8.561-2.086,9.224-18.903,6.011C1487.32,1823.816,1492.243,1814.056,1506.543,1812.87z M1519.452,1846.236
	c-4.663,4.663-24.887-2.217-26.175-8.904c-1.675-8.696,24.059-7.946,26.338,0.768
	C1520.708,1842.281,1520.157,1846.236,1519.452,1846.236z M1520.347,1773.197c-2.646,4.282-23.392,4.278-26.036,0
	C1491.591,1768.797,1523.085,1768.767,1520.347,1773.197z M1622.093,1563.771c3.686-2.279,13.809,5.907,13.809,11.135
	c0,4.283-1.547,3.821-9.931-2.969C1621.305,1568.16,1619.873,1565.143,1622.093,1563.771z M1512.006,1567.351
	c0.587-6.391,26.26-2.415,26.26,4.068c0,9.358,6.509,4.203,6.509,11.391c0,3.74-4.134,4.882-17.678,4.882
	C1505.209,1587.691,1510.116,1587.924,1512.006,1567.351z M1508.978,1594.201c49.311,0,49.913-1.255,47.614,7.323
	c-5.556,20.731,9.134,18.713-47.614,18.713V1594.201z M1497.358,1564.91c7.195,0,7.663,0.859,5.179,9.518
	c-1.501,5.235-1.887,10.361-0.858,11.391c1.03,1.03-1.301,1.872-5.179,1.872c-5.889,0-7.051-1.877-7.051-11.391
	C1489.449,1566.407,1490.489,1564.91,1497.358,1564.91z M1497.043,1620.237c-6.688,0-7.592-1.551-7.592-13.018
	c0-13.658,12.656-20.631,13.289-7.323C1503.491,1615.652,1507.011,1620.237,1497.043,1620.237z M1481.858,1670.919
	c-2.557-6.662,10.849-18.614,10.849-1.323C1492.707,1676.629,1484.436,1677.637,1481.858,1670.919z M1495.96,1636.509
	c-8.621,0-8.622-9.763,0-9.763C1504.581,1626.745,1504.582,1636.509,1495.96,1636.509z M1510.607,1675.563
	c-9.035,0-11.391-1.283-11.391-6.204c0-5.587,1.134-5.856,11.391-2.708C1526.253,1671.452,1525.099,1675.563,1510.607,1675.563z
	 M1557.795,1631.627c0,5.09-41.838,7.522-46.648,2.712c-5.714-5.713-0.208-7.594,22.239-7.594
	C1552.914,1626.745,1557.795,1627.722,1557.795,1631.627z M1570.812,1577.927c0,14.747-4.808,11.674-5.38-3.439
	c-0.686-18.125,5.866-11.022,5.624-8.684C1570.816,1568.127,1570.812,1578.4,1570.812,1577.927z M1583.139,1633.691
	c-1.103,3.32-1.869,3.318-3.919,0c-2.714-4.392,0.015-9.373,3.323-6.064C1582.549,1627.302,1584.388,1629.945,1583.139,1633.691z
	 M1579.182,1580.376c-1.409-4.918-1.416-11.509-0.013-14.645c2.24-5.007,2.707-4.81,3.832,1.62
	C1585.334,1580.682,1582.269,1591.134,1579.182,1580.376z M1613.121,1603.45c-10.947,0-1.349-3.827,4.068-1.642
	C1619.426,1602.711,1617.596,1603.45,1613.121,1603.45z M1591.397,1568.32c-2.889-18.932,29.864,7.879,45.159,19.371
	C1614.574,1587.691,1594.712,1590.043,1591.397,1568.32z M1643.772,1564.91c3.497,0,11.657-6.053,11.657,0.93
	c0,2.685-2.317,5.771-5.148,6.857c-7.274,2.792-7.87,2.572-7.87-2.906C1642.411,1567.107,1643.023,1564.91,1643.772,1564.91z
	 M1643.846,1582.705c8.049-6.088,11.582-6.057,11.582,0.104c0,3.181-3.118,4.846-8.95,4.778
	C1637.906,1587.488,1637.795,1587.282,1643.846,1582.705z M1644.387,1602.071c-2.865-7.467-2.633-7.87,4.533-7.87
	c4.339,0,6.509,2.17,6.509,6.509C1655.429,1608.433,1647.217,1609.445,1644.387,1602.071z M1668.657,1567.081
	c11.943-8.365,25.677-1.285,25.776,13.287c0.045,6.624-1.503,7.323-16.223,7.323
	C1659.86,1587.691,1654.805,1576.784,1668.657,1567.081z M1701.043,1617.795c-0.044-6.481-1.702-7.323-14.429-7.323
	c-18.57,0-24.675-2.502-24.675-10.112c0-13.537,40.519-5.046,43.214,9.057C1706.857,1618.326,1701.117,1628.728,1701.043,1617.795z
	 M1795.175,1428.221c3.919,0,8.839,6.509,2.011,6.509C1790.373,1434.73,1791.268,1428.221,1795.175,1428.221z M1769.782,1477.039
	c-3.855,0,0.109-16.273,1.555-16.273C1772.782,1460.766,1773.646,1477.039,1769.782,1477.039z M1777.061,1447.341
	c-4.57,22.849-13.24,0.558-7.396-3.053c6.957-4.3-10.525-8.844-7.553-20.208c2.842-10.868-5.798,0.674-5.798-5.492
	c0-3.169,13.388-1.761,20.341,2.139C1782.098,1423.782,1776.858,1447.696,1777.061,1447.341z M1807.571,1457.025
	c-0.448-0.268-4.623-1.077-9.28-1.797c-11.676-1.805-9.584-17.243,2.337-17.243c6.449,0,7.757,1.646,7.757,9.764
	C1808.385,1453.119,1808.019,1457.292,1807.571,1457.025z M1879.99,1590.946c-8.678,0-9.763-1.085-9.763-9.764
	c0-6.259,1.657-9.764,4.616-9.764c11.285,0,14.911-9.038,14.911,7.788C1889.753,1590.081,1889.034,1590.946,1879.99,1590.946z
	 M1899.909,1613.728c-3.745,0-4.313-45.563-0.214-45.563C1903.78,1568.165,1903.663,1613.728,1899.909,1613.728z M1927.174,1384.73
	c44.896-2.562,37.13-5.324,18.442-5.324h-16.815v-24.619c6.115-0.098,36.771-1.6,39.818,3.06c3.863,5.909,2.836,21.557-1.415,21.557
	c-3.037,0-3.037,0.868,0,3.905c5.87,5.871,4.971,27.535-1.242,29.919c-0.198,1.286-17.261,2.718-33.268-0.343
	C1924.208,1411.263,1925.388,1408.869,1927.174,1384.73z M1971.11,1422.526c0,3.758-33.004,6.085-42.309,2.984
	C1907.724,1418.483,1971.11,1415.081,1971.11,1422.526z M1914.449,1620.699c-2.302-3.724,0.55-42.82,1.028-50.907
	c38.958-1.67,41.051-2.799,44.826,5.62c5.744,12.808,2.134,15.535-20.567,15.535c-29.93,0-21.55,6.509,1.93,6.509
	c19.532,0,29.882,10.635,19.984,20.533C1957.394,1622.242,1916.843,1624.572,1914.449,1620.699z M1945.082,1639.763
	c-14.466,0-10.001-9.764-5.148-9.764C1951.923,1630,1963.651,1639.763,1945.082,1639.763z M1962.982,1639.763
	c-7.448,0-3.799-6.997,0-6.997C1966.853,1632.766,1970.346,1639.763,1962.982,1639.763z M1969.831,1551.328
	c-12.004,19.423-56.156,1.862-53.58-21.311c8.268-74.377-10.189-71.807,33.303-72.816c33.739-0.782,34.336,0.111,34.47,51.569
	c0.097,37.329-0.299,39.868-6.213,39.868C1971.456,1548.638,1969.511,1551.647,1969.831,1551.328z M1977.008,1552.923
	c3.363-1.346,6.238-0.175,6.238,0.257C1985.828,1555.763,1970.97,1555.341,1977.008,1552.923z M1984.134,1597.455
	c0,25.974-6.233,26.012-5.864,0C1978.638,1571.475,1984.134,1571.49,1984.134,1597.455z M1981.074,1639.763
	c-3.918,0-8.838-6.509-2.011-6.509C1986.113,1633.254,1984.776,1639.763,1981.074,1639.763z M1995.27,1375.573
	c-4.786,10.928-1.199,22.515-9.425,35.07c-7.384,11.269,0.453,4.65,0.453,12.697c0,4.958-7.446,6.908-9.321,2.441
	c-1.341-3.203,0.93-68.136,1.068-72.804l8.737,1.009C1996.079,1355.06,1999.947,1364.896,1995.27,1375.573z M2422.868,455.734
	c12.223-1.201,14.089-7.116,2.245-7.116c-6.509,0-8.136-1.627-8.136-8.136c0-6.579,1.609-8.136,8.407-8.136
	c10.196,0,9.08-7.643-1.34-9.176c-8.229-1.21-7.068-6.652-7.068-19.573c134.879-0.933,121.382-12.3,92.753,62.922l-57.701,0.627
	c3.228-23.548,4.47-26.895-2.261-26.895c-5.005,0-5.686,1.954-4.295,12.32c0.909,6.776,0.361,12.509-1.217,12.74
	c-0.197,0-19.769,3.357-26.692-3.517C2412.972,457.236,2413.479,456.656,2422.868,455.734z M2509.871,510.681
	c-2.228-3.605,13.56-8.766,16.826-5.5C2532.43,510.914,2512.021,514.16,2509.871,510.681z M2519.686,533.235
	c-6.813,0-5.918-6.509-2.011-6.509C2521.593,526.726,2526.513,533.235,2519.686,533.235z M2524.373,1037.684h-22.498
	c0.126-5.929,2.666-163.481,6.141-167.093c3.368-3.501,8.93,15.114,9.57,32.031C2519.03,940.789,2524.276,980.753,2524.373,1037.684
	z M2510.258,794.409c-2.194,5.437-2.194-13.574,0-8.136C2511.161,788.51,2511.161,792.171,2510.258,794.409z M2512.127,499.449
	l4.01-11.584c5.005-14.456,12.765-15.227,14.109-1.402C2531.373,498.031,2529.655,496.877,2512.127,499.449z M2462.54,518.861
	c0-11.334,1.218-14.916,5.069-14.916c6.388,0,4.068,13.679,4.068,13.579C2470.246,536.94,2462.54,538.069,2462.54,518.861z
	 M2467.421,497.435c-6.811,0-6.117-14.45,0-19.527c4.187-3.475,4.882-2.373,4.882,7.738
	C2472.303,493.956,2470.862,497.435,2467.421,497.435z M2455.991,505.572c0.021,12.86-0.081,11.808,0.02,11.848
	c0.029,16.882-19.986,20.424-27.726,4.908C2418.578,502.869,2423.279,504.909,2455.991,505.572z M2426.74,544.626
	c0,6.524-6.923,6.494-4.431,0C2424.864,537.966,2426.74,538.383,2426.74,544.626z M2423.486,497.435v-21.944
	c33.342,0.513,32.545-1.207,32.545,11.222C2456.031,499.18,2456.886,497.435,2423.486,497.435z M2413.979,541.1
	c0.265-6.441,2.066-1.966,1.966-1.966C2418.229,544.84,2413.635,549.455,2413.979,541.1z M2390.94,152.458
	c0-4.306,6.509-4.3,6.509,0C2397.449,156.764,2390.94,156.758,2390.94,152.458z M2397.449,181.749
	c-4.226,0-3.016-7.453-3.499-12.123c-0.256-2.467,6.753-8.165,6.753,3.715C2400.704,177.965,2399.239,181.749,2397.449,181.749z
	 M2403.576,26.04c3.895-6.146,4.383,28.783,0.324,28.783C2399.99,54.823,2399.734,32.102,2403.576,26.04z M2378.979,472.853
	c-0.609,0,6.106,3.182,4.882,12.778c-1.723,13.5-37.85-44.162-44.675-54.913c59.737,1.081,58.263-0.148,58.263,9.764
	c0,6.559-1.615,8.136-8.328,8.136c-4.723,0-7.458,1.409-6.317,3.255c3.769,6.099,14.645-0.657,14.645,9.763
	c0,3.58-1.098,6.336-2.441,6.124C2382.316,465.755,2373.367,468.599,2378.979,472.853z M2397.45,544.626
	c0,8.52-0.752,9.554-4.339,5.966c-3.376-3.376-2.551-14.103,1.085-14.103C2395.985,536.489,2397.45,540.151,2397.45,544.626z
	 M2394.452,482.519c0.364-8.825,4.251,1.73,1.709,4.272C2395.08,487.872,2394.311,485.949,2394.452,482.519z M2342.16,594.097
	c23.102,1.099,15.496-3.188,8.172,88.844c-1.194,14.99-8.333,79.74-12.41,117.162h-25.987
	C2331.728,575.051,2321.434,593.111,2342.16,594.097z M2308.542,1035.565c-1.402-1.402,0.943-200.014,2.385-201.935
	c0.293-0.39,4.359,0.336,26.523,5.961c-19.239,194.203-17.981,187.268-17.981,187.167
	C2319.347,1033.36,2312.143,1039.166,2308.542,1035.565z M2282.383,628.661c2.323,1.351,3.756-0.58,3.812-5.136
	c0.289-23.514,7.764-41.428,16.483-39.5c16.648,3.682,19.995,5.033,18.489,7.469c-4.044,6.544-9.159,53.189-13.061,119.11
	c-5.211,88.037-5.267,89.499-12.34,89.499c-4.237,0-5.802-1.586-4.617-4.676c4.008-10.444,6.399-140.782,2.626-143.114
	c-2.048-1.266-3.724-4.663-3.724-7.549C2290.051,637.517,2277.103,625.59,2282.383,628.661z M2267.268,832.649
	c-8.621,0-8.623-9.763,0-9.763C2275.889,822.885,2275.891,832.649,2267.268,832.649z M2283.35,712.232
	c-1.896,0-2.43,1.644-1.188,3.654c4.738,7.665-0.82,73.64-0.72,73.64c-2.105,11.855-5.274,10.577-17.005,10.577V673.178
	c5.095,0,13.852,0.697,18.455-3.906c3.037-3.038,3.905,1.302,3.905,19.527C2286.797,703.122,2285.457,712.232,2283.35,712.232z
	 M2296.124,1098.704c-0.152,11.187-0.604,20.341-1.005,20.341c-3.628,0-5.061-7.823-5.018-27.392
	C2290.173,1057.793,2296.458,1074.184,2296.124,1098.704z M2293.304,1066.974c-4.3,0-4.299-22.782,0-22.782
	C2297.603,1044.193,2297.602,1066.974,2293.304,1066.974z M2298.729,919.708c-2.198,101.134-1.045,117.976-5.581,117.976
	c-5.629,0,2.019-95.723-2.143-165.166c-2.457-40.992-2.281-43.122,3.551-43.122C2300.467,829.396,2300.619,832.703,2298.729,919.708
	z M2312.931,1041.604c7.784-0.908,8.167-0.238,6.981,12.204c-1.094,11.469-2.285,13.165-9.246,13.165
	C2298.456,1066.974,2300.594,1043.044,2312.931,1041.604z M2330.344,1086.065c-2.475,13.512-7.236,26.749-7.543,20.977
	c-0.114-2.127-4.637-8.717-10.052-14.645c-10.842-11.87-11.529-21.203-1.428-19.403c9.429,1.681,11.15,11.168,11.223,3.031
	c0.033-3.658,1.76-4.937,5.008-3.69C2333.624,1074.665,2330.444,1086.065,2330.344,1086.065z M2335.612,1064.127
	c0,1.567-3.1,2.848-6.888,2.848c-10.549,0-3.036-6.306-2.919-20.341c0.028-3.624,2.56-5.695,6.96-5.695
	C2343.987,1040.938,2335.612,1050.97,2335.612,1064.127z M2343.182,1028.734c-3.83,14.556-14.99,6.268-13.147-9.764
	c3.318-28.864,16.071-176.557,19.151-176.557C2377.318,842.414,2375.24,906.898,2343.182,1028.734z M2381.892,861.798
	c-4.08,27.799-5.885-14.443-1.258-11.583C2382.125,851.137,2382.691,856.349,2381.892,861.798z M2408.315,709.792
	c0.468-13.743-0.287-15.574-6.797-16.499c-6.758-0.96-7.323,0.218-7.323,15.267c0,8.969-1.465,17.212-3.254,18.318
	c-10.544,6.517,7.577,11.206,18.726,14.886c-15.803,63.036-11.729,56.421-31.744,58.773c0-76.557,1.183-116.608-8.54-106.885
	c-2.113,2.112-1.886,98.991-1.905,105.482c-2.385,0.068-18.845,0.87-18.845-0.707c0-0.115,19.504-158.175,19.524-193.911
	c0.004-7.874,48.653,4.745,70.947,10.042C2426.636,666.247,2406.525,762.411,2408.315,709.792z M2456.031,551.401
	c0,2.249-18.271,1.532-20.612-0.809c-6.203-6.203-1.409-10.848,11.197-10.848C2465.885,539.744,2456.031,544.268,2456.031,551.401z
	 M2464.621,550.504c-3.889-3.89-2.101-10.76,2.801-10.76C2477.059,539.744,2470.415,556.298,2464.621,550.504z M2493.152,474.654
	c12.739,0,14.15,0.727,12.638,6.509c-0.936,3.58-2.63,6.275-3.763,5.988c-1.134-0.286-6.821-1.112-12.638-1.833
	C2472.603,483.234,2475.631,474.654,2493.152,474.654z M2497.742,1055.11c0.773,11.475-3.62,18.209-7.639,11.706
	C2486.023,1060.213,2495.58,1023.014,2497.742,1055.11z M2491.828,1020.327c0-24.334,7.526-24.657,4.553-1.356
	C2493.435,1042.057,2491.828,1042.535,2491.828,1020.327z M2497.455,988.053c-1.698,16.235-1.706-40.719,0-24.409
	C2498.157,970.356,2498.157,981.34,2497.455,988.053z M2491.943,1093.224c-4.835-9.034-4.151-16.486,1.513-16.486
	c3.41,0,4.882,3.435,4.882,11.391C2498.337,1101.05,2496.791,1102.282,2491.943,1093.224z M2516.928,1043.528
	c10.733,2.052,10.831,21.779,0.123,24.649c-13.406,3.593-15.459,1.885-15.459-12.865
	C2501.592,1043.979,2505.117,1041.27,2516.928,1043.528z M2509.729,1119.045c-10.971,0-10.98-9.764,0-9.764
	C2520.7,1109.281,2520.709,1119.045,2509.729,1119.045z M2520.671,1097.078c-7.344,13.776-20.508,4.712-18.509-12.744
	c0.936-8.172,2.356-9.224,12.447-9.224C2526.661,1075.11,2528.612,1082.182,2520.671,1097.078z M2522.748,549.507
	c-7.411,0-10.946-5.869-6.321-10.494c3.263-3.263,14.457,1.377,14.457,5.992C2530.884,547.638,2527.506,549.507,2522.748,549.507z
	 M2532.079,452.968c-1.935,14.115-4.128,17.668-8.319,13.477C2521.362,464.046,2537.708,411.907,2532.079,452.968z
	 M2555.154,484.642c-5.814,9.407-6.497-8.202-1.435-5.074C2555.537,480.692,2556.183,482.976,2555.154,484.642z M2555.641,468.145
	c-4.187,0-5.156-3.407-4.856-17.086c0.349-15.918,0.541-16.307,2.815-5.695C2557.59,463.983,2562.887,468.145,2555.641,468.145z
	 M2622.236,552.762c-8.311,0-9.99-1.283-9.99-7.634c0-10.746,17.375-10.319,18.94,0.465
	C2631.186,550.722,2632.63,552.762,2622.236,552.762z M2629.722,525.912c-3.774,14.084-17.476,4.683-17.476-11.99
	c0-5.3,2.066-6.723,9.764-6.723C2632.275,507.199,2633.767,510.819,2629.722,525.912z M2617.395,476.629
	c7.39-2.836,7.883-2.599,7.755,3.72c-0.159,7.84-7.848,21.056-10.631,18.273C2610.17,494.274,2612.218,478.616,2617.395,476.629z
	 M2600.042,514.098c-10.166,1.623-17.086,9.638-17.086-0.677c0-5.525,1.77-6.464,10.577-5.615
	C2602.694,508.689,2607.12,512.967,2600.042,514.098z M2598.415,477.7c2.44,0.125,4.068,4.766,4.068,11.599
	c0,15.19-20.586,17.589-26.116,3.043C2568.286,471.089,2576.646,476.589,2598.415,477.7z M2564.605,497.435
	c-2.772,0-4.43-3.727-4.43-9.956C2560.175,464.508,2574.032,497.435,2564.605,497.435z M2566.492,507.199
	c7.408,0,8.443,1.396,11.459,15.459c2.188,10.203,1.9,10.577-8.152,10.577c-18.768,0,1.489-6.534-6.211-11.293
	C2557.506,518.183,2559.669,507.199,2566.492,507.199z M2571.483,551.367c-7.273,1.954-11.308-0.645-11.308-7.284
	c0-6.226,21.548-5.738,23.958,0.542C2586.529,550.868,2581.238,548.746,2571.483,551.367z M2683.845,1063.72
	c-5.263,8.144-1.371-4.322-5.23-14.379c-1.296-3.378-0.177-5.148,3.254-5.148C2689.421,1044.193,2687.482,1058.092,2683.845,1063.72
	z M2687.098,1018.721c0,18.018-7.313,27.745-11.198,14.895c-10.293-34.046-6.851-31.209,11.198-33.858V1018.721z M2747.307,1102.773
	c-7.473,0-8.136-1.193-8.136-14.645c0-13.452,0.663-14.645,8.136-14.645c7.473,0,8.136,1.193,8.136,14.645
	C2755.443,1101.58,2754.78,1102.773,2747.307,1102.773z M2753.817,1110.91c0,3.655-14.645,7.983-14.645,0
	C2739.171,1102.886,2753.817,1107.309,2753.817,1110.91z M2747.306,1044.193c6.982,0,8.136,1.339,8.136,11.043
	c0,10.917-4.307,15.37-12.204,12.615C2734.766,1064.895,2738.325,1044.193,2747.306,1044.193z M2729.408,1110.718
	c0,16.934-23.523-4.69-6.509-4.69C2726.479,1106.028,2729.408,1108.138,2729.408,1110.718z M2729.407,1086.501
	c0,17.042-16.185,18.959-28.477,3.373c-14.292-18.121-6.476-16.391,28.477-16.391V1086.501z M2729.407,1044.193
	c0,8.776,1.043,25.02-4.068,24.68c-30.501-2.033-31.731-2.356-31.731-8.328C2693.607,1043.002,2677.77,1044.193,2729.407,1044.193z
	 M2693.259,1089.755c3.392,0,8.733,9.763,1.873,9.763C2688.714,1099.519,2689.577,1089.755,2693.259,1089.755z M2694.887,1113.351
	c-5.397-5.397-5.399-5.752-0.042-6.784C2717.282,1102.245,2712.364,1130.827,2694.887,1113.351z M2716.391,1148.719
	c0-4.441,6.509-8.205,6.509-4.023C2722.9,1149.129,2716.391,1152.913,2716.391,1148.719z M2718.156,1161.578
	c-1.03-1.666-0.384-3.949,1.435-5.074c3.884-2.4,9.817,0.646,9.817,5.041C2729.408,1165.505,2720.599,1165.531,2718.156,1161.578z
	 M2754.63,1213.168c-9.793-3.093-12.538-9.507-4.068-9.507C2757.264,1203.661,2755.386,1213.404,2754.63,1213.168z
	 M2745.911,1194.559c-9.457,1.388-10.245,0.651-18.982-17.746c-0.637-1.342,5.518-2.441,13.678-2.441
	c14.187,0,14.837,0.412,14.837,9.394C2755.444,1191.665,2753.927,1193.382,2745.911,1194.559z M2744.053,1164.608
	c-15.127,0-17.759-20.478-3.105-24.156c11.404-2.862,14.496-0.099,14.496,12.957
	C2755.444,1164.038,2754.865,1164.608,2744.053,1164.608z M2768.462,1213.424c-8.621,0-8.623-9.763,0-9.763
	C2777.083,1203.661,2777.084,1213.424,2768.462,1213.424z M2768.462,1193.899c-5.063,0-6.509-2.17-6.509-9.764
	c0-7.594,1.446-9.763,6.509-9.763s6.509,2.17,6.509,9.763C2774.971,1191.729,2773.524,1193.899,2768.462,1193.899z
	 M2761.745,1163.794c-2.014-7.888-1.571-22.495,0.726-23.915c5.263-3.253,12.5,5.641,12.5,15.364
	C2774.971,1162.829,2763.408,1170.306,2761.745,1163.794z M2784.957,1140.336c5.146,3.18-2.163,11.254,4.762,11.254
	c5.591,0,7.881,13.018-1.729,13.018c-5.44,0-6.509-2.17-6.509-13.21C2781.48,1142.858,2782.709,1138.947,2784.957,1140.336z
	 M2784.734,1213.424c-4.303,0-4.303-9.763,0-9.763S2789.038,1213.424,2784.734,1213.424z M2801.822,1214.174
	c-13.225-2.172-8.854-11.033,4.882-9.896c7.831,0.648,12.204,2.648,12.204,5.582
	C2818.908,1214.757,2813.573,1216.103,2801.822,1214.174z M2803.817,1193.899c-21.18,0-13.604-3.435-17.803-14.379
	c-1.642-4.28,0.826-5.148,14.645-5.148c9.141,0,16.808,1.098,17.036,2.441C2820.674,1194.319,2820.318,1193.899,2803.817,1193.899z
	 M2827.145,1213.424c-4.248,0,0.368-9.763,1.873-9.763C2830.475,1203.661,2831.513,1213.424,2827.145,1213.424z M2828.863,1180.881
	c-1.718,0-6.749-6.509-2.011-6.509C2831.669,1174.372,2830.48,1180.881,2828.863,1180.881z M2861.976,1205.892
	c5.346-3.158,37.903-0.147,39.159,3.622C2903.406,1216.325,2848.245,1214.005,2861.976,1205.892z M2882.364,1194.424
	c-20.667,1.167-23.052-0.865-16.152-13.756c6.218-11.618,35.685-8.993,35.685,3.179
	C2901.896,1193.135,2901.512,1193.343,2882.364,1194.424z M2926.576,1213.424c-16.175,0-26.809-5.894-12.475-6.915
	c17.977-1.28,28.282-0.177,29.39,3.147C2944.343,1212.21,2938.894,1213.424,2926.576,1213.424z M2914.915,1174.372
	c4.595,0,6.494,2.153,6.459,7.323c-0.064,9.441-3.752,14.857-8.9,13.072C2905.281,1192.273,2907.423,1174.372,2914.915,1174.372z
	 M2934.137,1193.899c-7.859,0-9.459-1.344-9.459-7.944c0-14.733,13.298-13.545,17.243,1.542
	C2941.921,1191.099,2944.88,1193.899,2934.137,1193.899z M2946.765,1184.135c-1.304-8.884-0.604-9.763,7.767-9.763
	c8.052,0,9.2,1.218,9.2,9.763c0,8.121-1.307,9.764-7.767,9.764C2949.823,1193.899,2947.898,1191.856,2946.765,1184.135z
	 M2963.54,1213.424c-4.758,0,0.368-6.509,2.011-6.509C2967.187,1206.915,2968.336,1213.424,2963.54,1213.424z M2966.987,1164.608
	c-49.446,0-54.358,0.799-56.171-6.131c-5.166-19.752,35.51-16.65,56.171-16.65V1164.608z M2973.724,1183.322
	c-0.322-12.585,6.285-9.008,6.051-6.509C2978.882,1186.355,2973.938,1191.673,2973.724,1183.322z M2980.005,1213.424
	c-4.303,0-4.303-9.764,0-9.764C2984.308,1203.661,2984.308,1213.424,2980.005,1213.424z M2978.377,1164.608
	c-3.41,0-4.882-3.435-4.882-11.391c0-7.956,1.472-11.391,4.882-11.391c3.409,0,4.882,3.435,4.882,11.391
	C2983.259,1161.172,2981.787,1164.608,2978.377,1164.608z M2999.26,1213.425c-12.451,0-11.334-7.666,1.336-9.166
	c6.165-0.73,8.699,0.455,8.699,4.068C3009.295,1211.853,3006.199,1213.425,2999.26,1213.425z M2991.938,1194.984
	c-6.989-6.989-1.971-20.612,7.594-20.612c8.989,0,9.764,0.904,9.764,11.391C3009.295,1196.858,2999.183,1202.23,2991.938,1194.984z
	 M3003.6,1164.351c-10.335-0.466-13.832-3.438-13.832-11.753c0-6.153,1.292-7.718,5.148-6.238
	c9.019,3.463,14.379-0.801,14.379,10.112C3009.295,1162.149,3007.573,1164.53,3003.6,1164.351z M3056.66,1144.251
	c9.314-1.781,7.323,0.633,7.323,8.266c-1.421,14.165-15.634,16.607-15.634,2.687
	C3048.349,1147.747,3050.042,1145.516,3056.66,1144.251z M3058.476,1173.524c6.824,1.785,5.507,6.31,5.507,11.824
	c-1.628,16.682-15.633,15.596-15.633-1.213C3048.349,1173.345,3050.235,1171.369,3058.476,1173.524z M3039.322,1213.992
	c-4.796,4.796-8.688-3.68-4.724-7.644C3039.394,1201.552,3043.285,1210.028,3039.322,1213.992z M3034.246,1194.984
	c-4.398-4.398-2.265-20.612,2.712-20.612c3.409,0,4.882,3.435,4.882,11.391C3041.84,1196.533,3039.11,1199.848,3034.246,1194.984z
	 M3041.84,1154.947c0,9.241-2.942,12.144-7.594,7.491c-3.934-3.935-2.259-13.372,2.712-15.28
	C3041.551,1145.396,3041.84,1149.786,3041.84,1154.947z M3056.485,1213.425c-8.042,0-10.912-4.409-5.176-7.955
	C3058.001,1201.334,3074.46,1213.425,3056.485,1213.425z M3071.13,1141.826h45.563c0,24.069,2.429,22.781-45.563,22.781V1141.826z
	 M3116.694,1196.538c-41.862-0.21-47.575,1.427-45.007-15.9c0.944-6.37,2.999-7.219,17.344-7.157
	C3120.545,1173.613,3116.694,1171.86,3116.694,1196.538z M3118.184,1210.984c-2.642,6.884-47.052,4.675-47.052-2.34
	c0-2.442,2.538-3.921,5.695-3.316C3090.764,1207.995,3120.697,1204.434,3118.184,1210.984z M3391.322,1518.055
	c-3.722,7.843-3.737,12.88-3.737,19.043c1.783,9.328-5.64,13.886-9.982,6.129c-4.723-8.439,10.388-33.31,7.181-41.662
	c-1.351-3.52,0.111-4.998,4.939-4.998C3398.028,1496.566,3398.501,1502.926,3391.322,1518.055z M3459.863,1518.293
	c0,19.564-0.571,20.196-16.47,18.232c-11.735-1.449-10.156-0.622-9.385-36.704l23.504-0.001
	C3459.563,1499.821,3459.863,1516.214,3459.863,1518.293z M3551.391,1507.498c-4.249,21.278-3.735,20.753-18.084,18.508
	c-13.175-2.061-15.002-6.867-9.866-25.94c3.459-12.848,12.846-18.294,17.777-10.314c1.002,1.624,4.507,2.247,7.787,1.389
	C3554.563,1489.688,3554.725,1490.803,3551.391,1507.498z M4944.036,1683.699c-44.612,5.919-79.682,5.106-79.682,3.444
	c0-2.089,76.895-63.652,79.504-63.652C4946.748,1623.491,4944.151,1680.263,4944.036,1683.699z M4942.468,1568.165
	c-4.366,0-4.365-61.836,0-61.836C4946.833,1506.329,4946.834,1568.165,4942.468,1568.165z M4961.223,1682.614
	c-4.049,0-9.137,12.083-8.674-19.255c0.432-29.173-1.786-28.507,6.558-2.663C4964.023,1675.922,4964.47,1680.553,4961.223,1682.614z
	"/>
</svg>
