<svg width="180px" height="55px" xmlns="http://www.w3.org/2000/svg" viewBox="0 0 66.86 20.54"><title>Asset 16</title><g id="Layer_2" data-name="Layer 2"><g id="Layer_2-2" data-name="Layer 2"><path d="M0,16H.51c.19.23.4.46.65.71a6.35,6.35,0,0,0,.79.67,5.16,5.16,0,0,0,.88.51,2.54,2.54,0,0,0,1,.2h.32c.12,0,.2,0,.21,0l.26-.51c.74-.14,1.37-.24,1.89-.32l1.59-.24,1.35-.2.19,0h.21a1,1,0,0,1,.6.2,4.09,4.09,0,0,1,.52.43c.17.16.34.33.5.5a1.85,1.85,0,0,0,.52.42,1.47,1.47,0,0,1,.08-.92,1.43,1.43,0,0,1,.52-.64,2.68,2.68,0,0,1,.8-.37,3.48,3.48,0,0,1,.89-.13,2.38,2.38,0,0,1,.85.16,2.31,2.31,0,0,0,.83.15,1.41,1.41,0,0,0,.5-.08.72.72,0,0,0,.36-.46l-.24,0-.39-.09a2.74,2.74,0,0,1-.4-.15.4.4,0,0,1-.24-.24V13.17c0-.36,0-.81.07-1.35s.07-1.07.09-1.57.05-.95.07-1.33,0-.56,0-.58l.39-.76V15l.38-.06.58-.14.57-.17.37-.14a.57.57,0,0,0,.13-.24,1.22,1.22,0,0,1,.12-.27l.11,0a7.11,7.11,0,0,1,1.94.28,7.75,7.75,0,0,0,2,.28h.36l.55,0h.87s.06-.12.12-.25a.92.92,0,0,1,.14-.26c.06-.12.19-.32.37-.6s.36-.56.54-.86l.54-.83.33-.5a1.36,1.36,0,0,1,.69-.56,3.37,3.37,0,0,1,1-.23,7,7,0,0,1,1,0l.93,0,.2,0h.3a1,1,0,0,1,.3.08.27.27,0,0,1,.16.22l2.93-.89V6.56h.5v2.8h.89L40.17,7.7h-2V7.32l.35,0c.21,0,.44-.06.7-.11L39.92,7a1.29,1.29,0,0,0,.5-.2s.08-.09.14-.24a2.54,2.54,0,0,1,.12-.26.49.49,0,0,1,.11-.15l.14-.11V2.87H38.64a.5.5,0,0,1-.11-.15l-.14-.23V2.24c0-.1.08-.24.14-.4a.86.86,0,0,1,.11-.24h1.53l-.26-.38c.45.09.73.07.86,0A.8.8,0,0,0,41,.75a2.73,2.73,0,0,1,.14-.51q.09-.24.54-.24V1.4a1.22,1.22,0,0,0,.37,0l.26-.08.24-.07a1.08,1.08,0,0,1,.35,0,.58.58,0,0,1-.19.5,1.44,1.44,0,0,1-.43.21,2.41,2.41,0,0,0-.43.18.38.38,0,0,0-.19.38c0,.27,0,.56,0,.88s.08.63.14.95.12.64.18.94.11.59.16.84h.07l.06,0,.13,0a.75.75,0,0,0,.25-.25h1.78s.08,0,.14.1a.65.65,0,0,1,.11.15s0,.13.07.23,0,.22.07.34,0,.25.08.35a.84.84,0,0,1,0,.23h2a.9.9,0,0,1-.24.21,1.92,1.92,0,0,1-.27.17L46,7.65c-.27,0-.54.07-.84.09l-.85.07-.56,0v.25l1.78,3.56a.86.86,0,0,1,.23.32l.24.56c.07.2.14.37.19.53s.08.25.1.25h3.3l.26.38.38-.51V6.31l.38.25.26,7.37v.64h-1v2.11a.45.45,0,0,0,.48-.28l.22-.6a1.64,1.64,0,0,1,.38-.6,1.31,1.31,0,0,1,1-.28,2.12,2.12,0,0,1,1.26.44,1.94,1.94,0,0,1,.78,1.11h.43l.7,0h1.15c.31,0,.68,0,1.11,0s.87,0,1.31,0a5.35,5.35,0,0,0,1.24-.22,1.73,1.73,0,0,0,.92-.61c.05-.07.16-.22.32-.46l.53-.76c.2-.27.38-.53.55-.78l.38-.54a2.77,2.77,0,0,1,.15-.29.9.9,0,0,0,.1-.22V9.86a4.29,4.29,0,0,1,.45,1.39,10.53,10.53,0,0,1,.11,1.61c0,.55,0,1.08-.06,1.61s-.06,1-.06,1.44l.23,0,.31,0h.55a4.46,4.46,0,0,0,.88-.09,3.57,3.57,0,0,1,.82-.11.85.85,0,0,1,.6.23,1.19,1.19,0,0,1,.24.87V17c-.08.12-.24.33-.46.61l-.68.92-.69.91-.46.61a2.45,2.45,0,0,1-.29.32c-.13.13-.2.19-.22.19H1.53q-.15,0-.3-.3A5.45,5.45,0,0,1,1,19.46c-.09-.31-.17-.66-.24-1S.57,17.68.5,17.34a8.35,8.35,0,0,0-.25-.89A1,1,0,0,0,0,16Zm62.79-2.54-.51.51-.31.45c-.15.21-.3.44-.46.68l-.46.7-.29.46h.32l.32,0h.27a5.11,5.11,0,0,0,.72-.07c.27,0,.4-.11.4-.22ZM43,12.66a2,2,0,0,1,.61.13c.18.07.33.13.47.2a4.22,4.22,0,0,0,.45.18,1.6,1.6,0,0,0,.51.08v-.59Zm-3.3,0a2.09,2.09,0,0,1,.44.2l.26.18a.91.91,0,0,0,.28.13,2.26,2.26,0,0,0,.55.05h.29c.12,0,.2,0,.21,0l.26-.51v-.18c0-.1,0-.22,0-.35s0-.27,0-.41V11c0-.19,0-.38,0-.58s0-.36,0-.49V9.61a2.16,2.16,0,0,0,0-.29A3.15,3.15,0,0,0,41.82,9c0-.11-.06-.2-.09-.28s0-.1,0-.09l-1.14,2.77Zm-5.09-2.8V13l.72,0,1.07,0,1.06,0,.71,0a1.71,1.71,0,0,0,1.14-.43,3.74,3.74,0,0,0,.75-1,6.64,6.64,0,0,0,.5-1.22c.14-.43.27-.82.41-1.18,0-.1.09-.24.15-.43a2.2,2.2,0,0,0,.11-.33A.22.22,0,0,0,41,8.1a1.45,1.45,0,0,0-.32,0h-.26ZM31,11a2.1,2.1,0,0,0,.47,1.44,1.55,1.55,0,0,0,1.21.52H33l.31,0c0-.1.05-.27.08-.5s.07-.49.09-.77.05-.52.06-.76,0-.41,0-.51v-.25L31,10.88A.43.43,0,0,0,31,11ZM1.27,17.49c-.13,0-.2.09-.2.26s.07.25.2.25.21-.08.21-.25S1.41,17.49,1.27,17.49Z"/></g></g></svg>