<svg width="180px" height="55px" xmlns="http://www.w3.org/2000/svg" viewBox="0 0 69.25 24.18"><title>Asset 19</title><g id="Layer_2" data-name="Layer 2"><g id="Layer_2-2" data-name="Layer 2"><path d="M12,22h-.77c-.13,0-.38,0-.75,0l-1.15,0-1.16,0-.75,0-.4,0L6.38,22,5.77,22l-.4.08a2.51,2.51,0,0,1-.25.26,2.51,2.51,0,0,1-.26.25l-.13,0s-.06,0-.14-.11a3.23,3.23,0,0,1-.23-.27c-.07-.1-.14-.2-.2-.3a.57.57,0,0,1-.09-.23s0-.06,0-.13l.23-.52a4,4,0,0,1,.28-.5h.13l.13,0a1.08,1.08,0,0,1,.12.26.87.87,0,0,0,.13.25s0,0,0,0,0-.06,0-.06a.27.27,0,0,1,.06-.14l.14-.19a1.45,1.45,0,0,0,.12-.19.13.13,0,0,0,0-.14L5,20.22l-.33-.07-.27-.07H4.22a.48.48,0,0,0-.48.28A4.6,4.6,0,0,0,3.5,21a2.77,2.77,0,0,1-.31.62.74.74,0,0,1-.65.28H2.21a.24.24,0,0,1-.21-.1,3.49,3.49,0,0,1-.19-.43l-1-3.31a2.07,2.07,0,0,0-.47-.76A1.09,1.09,0,0,1,0,16.52V16.4a.83.83,0,0,1,.06-.29C.11,16,.18,16,.28,16l1,.5,1.4.09,1.17.09,1,.08h.51l1.1,0,1.69.07c.6,0,1.16.05,1.69.09L11,17a.85.85,0,0,0,.24.16.92.92,0,0,0,.27.1s.08,0,.14-.1a.5.5,0,0,0,.11-.16,3.3,3.3,0,0,1,.73-1.14,1.86,1.86,0,0,1,1.33-.41l.23,0s0,.06.05.12,0,.15.06.25.05.17.08.25l.06.14.1,0,.16,0,.25-.11A1.3,1.3,0,0,0,15,16v.17a3,3,0,0,1,.43,0,1.73,1.73,0,0,0,.38.05,1,1,0,0,0,.35,0,1,1,0,0,0,.36-.23v.17a2.86,2.86,0,0,1,.43,0,1.89,1.89,0,0,0,.39.05,1.06,1.06,0,0,0,.35,0,1,1,0,0,0,.36-.23v.07h.65a.46.46,0,0,0,.33-.14.88.88,0,0,0,.16-.39c0-.18.08-.45.13-.81h.25a.92.92,0,0,1,.29,0c.1,0,.17.1.22.24,0-.12.12-.19.32-.22a3.13,3.13,0,0,0,.65-.15,1.59,1.59,0,0,0,.67-.47,2.11,2.11,0,0,0,.39-1.2h.64v1a.9.9,0,0,0,.38.05,1.47,1.47,0,0,0,.93-.6,1.71,1.71,0,0,0,.34-1.05V12.2a.75.75,0,0,0-.25-.25l.51-.51,1,1L26,11.19a.64.64,0,0,1-.14-.12l-.12-.14c0-.07,0-.11,0-.13a.74.74,0,0,1,0-.12,1.09,1.09,0,0,1,.26-.16,1.17,1.17,0,0,1,.25-.1s.06,0,.13.12l.13.14.22.16.35.25.34.22a1.19,1.19,0,0,0,.23.13v-1H31c.07,0,.12.15.17.45s.08.66.11,1.1.07.93.12,1.45a11.54,11.54,0,0,0,.2,1.45A5,5,0,0,0,32,16a.65.65,0,0,0,.58.44V14.24s0-.08.1-.14l.15-.12a1,1,0,0,1,.38-.07v1.85a1,1,0,0,1,.08-.27q.07-.18.18-.39c.07-.13.13-.26.2-.38a.69.69,0,0,1,.18-.23.36.36,0,0,1,.29-.1l.28.06a.57.57,0,0,0,.25,0c.08,0,.14-.09.2-.24l.63-3.82h3.69s0,.12.11.26a1.13,1.13,0,0,0,.14.25.81.81,0,0,1,.15.49v.5a1.37,1.37,0,0,0,.07.45.56.56,0,0,0,.29.34l.13,0,.06,0h.06a3.08,3.08,0,0,0,.14-.51l.12-.51H41c.18-.76.36-1.52.53-2.3a10.7,10.7,0,0,0,.25-2.32,2.18,2.18,0,0,0-.08-.65,4.79,4.79,0,0,0-.21-.57c-.07-.19-.16-.38-.25-.59A3.19,3.19,0,0,1,41,4.58a10.67,10.67,0,0,1-.4-2c-.07-.73-.11-1.42-.11-2.06V0a1.77,1.77,0,0,1,.28.32c.13.18.28.38.43.61s.31.45.46.66A3.88,3.88,0,0,0,42,2a.75.75,0,0,0,.26.13.67.67,0,0,1,.25.13.35.35,0,0,1,0,.12.66.66,0,0,1,0,.13l-.25.26a.56.56,0,0,0,0,.15.33.33,0,0,0,0,.1.31.31,0,0,0,.14.06l.25.08.24.06.13,0a.45.45,0,0,1,0,.11.64.64,0,0,1,0,.15l-.51.76v.13a2.13,2.13,0,0,0,.09.67c.06.18.23.27.52.27a1.4,1.4,0,0,0,.48-.09c.17-.06.23-.21.18-.47a1.86,1.86,0,0,1,.61.27.56.56,0,0,1,.18.47,1.23,1.23,0,0,1-.15.53,4.13,4.13,0,0,1-.37.59l-.43.53-.35.41c.17-.12.3-.16.39-.11a.64.64,0,0,1,.2.23,2.58,2.58,0,0,0,.18.32.34.34,0,0,0,.3.17.68.68,0,0,1-.09.35,2.8,2.8,0,0,1-.2.32,3,3,0,0,0-.2.34.91.91,0,0,0-.09.41s0,.12,0,.26,0,.22,0,.25A1.55,1.55,0,0,0,44,9.92s0-.06,0-.13,0-.11,0-.13a1.72,1.72,0,0,1,.16-.2l.24-.26L44.64,9c.07-.06.11-.09.13-.09s.14,0,.27,0a.63.63,0,0,1,.24.2,2.63,2.63,0,0,1,0,1l.25-.51s.06.12.12.26a.82.82,0,0,0,.14.25l.12,0,.13,0a1.13,1.13,0,0,0,.14-.25c.06-.14.1-.22.11-.26a1.51,1.51,0,0,0,.84.31,1.19,1.19,0,0,1,0,.22.89.89,0,0,1,0,.23s0,.06-.13.13-.13.11-.13.13a1.8,1.8,0,0,0,.1.39,1.57,1.57,0,0,0,.16.37,1.51,1.51,0,0,1,.84-.31.61.61,0,0,1,0,.16.86.86,0,0,1,0,.15l-.51.51c0,.07,0,.11,0,.13a1.33,1.33,0,0,0,.23.67.88.88,0,0,0,.55.47,1.41,1.41,0,0,0,.64-.08V12a.78.78,0,0,1,.38.18,3.71,3.71,0,0,1,.24.36,3.84,3.84,0,0,1,.27.49,5.28,5.28,0,0,0,.27.53,3.8,3.8,0,0,0,.24.4.34.34,0,0,1,0,.13,1,1,0,0,1-.15.55,1.1,1.1,0,0,0-.15.59v.21a3.61,3.61,0,0,0,.05.52c0,.19.11.29.23.29h1.27L51.13,16l.39-.08.62-.09.62-.06.4,0h1a3.24,3.24,0,0,0,.64-.06.67.67,0,0,0,.43-.2.58.58,0,0,0,.07-.18q0-.15.06-.33t.06-.33a.58.58,0,0,1,.07-.18l.56-.05c.39,0,.64.07.75.22a1.37,1.37,0,0,1,.23.45,2.29,2.29,0,0,0,.17.46c.08.15.27.22.57.22s.69,0,1.1.05a9.81,9.81,0,0,0,1.21,0,5.93,5.93,0,0,0,1.14-.14,1.58,1.58,0,0,0,.88-.47,26.89,26.89,0,0,0,3.6-.09C66.83,15.05,68,15,69.25,15a1.48,1.48,0,0,1-.35.94,4.67,4.67,0,0,1-.89.81c-.36.26-.74.51-1.15.75a12.58,12.58,0,0,0-1.14.77,4.49,4.49,0,0,0-.89.84,1.5,1.5,0,0,0-.36,1v3.56c0,.12-.08.21-.24.28a3.66,3.66,0,0,1-.53.17,3,3,0,0,1-.56.07l-.35,0a16.18,16.18,0,0,1-2.86-.28,8.13,8.13,0,0,1-2.7-1Zm43.26-6.23c0,.17.07.26.21.26s.2-.09.2-.26-.07-.25-.2-.25S55.24,15.59,55.24,15.76ZM43.85,6.13a1.71,1.71,0,0,0-.31.26,2.42,2.42,0,0,0-.27.32q-.1.15,0,.15a.79.79,0,0,0,.48-.29A.8.8,0,0,0,44,6.1S44,6.06,43.85,6.13Zm-.48,2.64c0,.12,0,.16.13.13s.13-.08.13-.13-.05-.09-.13-.13S43.37,8.65,43.37,8.77ZM42,11.2a2.86,2.86,0,0,0,.51.06,7.91,7.91,0,0,0-.09-1.18c-.06-.4-.13-.79-.21-1.18a.38.38,0,0,0-.14.11L42,9.15a1.27,1.27,0,0,1,0,.23c0,.12,0,.26-.07.42s-.05.32-.08.48-.06.3-.08.4v.15A.34.34,0,0,0,42,11.2Zm-.54-6.84c0,.09.1.16.24.22V4.32a1.79,1.79,0,0,1-.11-.25,2.21,2.21,0,0,0-.14-.26s0,.06,0,.12a.82.82,0,0,0,0,.14A.92.92,0,0,0,41.48,4.36Zm-.4-1.44c0,.12.05.17.13.13s.13-.08.13-.13,0-.09-.13-.12S41.08,2.8,41.08,2.92ZM40.32,13.6c0,.12,0,.16.13.13s.12-.08.12-.13,0-.09-.12-.13S40.32,13.48,40.32,13.6ZM6.38,21.1h2.8L8.76,21l-.61-.15-.6-.16-.41-.1H6.38Z"/></g></g></svg>