<svg width="240px" height="55px" xmlns="http://www.w3.org/2000/svg" viewBox="0 0 74.77 13.73" fill="grey"><title>Asset 4</title><g id="Layer_2" data-name="Layer 2"><g id="Layer_2-2" data-name="Layer 2"><path d="M21.38,13.47c-2.66-.18-5.3-.48-7.93-.87s-5.24-.87-7.83-1.41H5.11L4.6,13H2.31l-.5-2.29c-.06.07-.18.2-.37.39a4.2,4.2,0,0,1-.4.37l-.13,0-.06,0H.79a1,1,0,0,0-.13-.55,2.7,2.7,0,0,0-.27-.39l-.26-.33A.55.55,0,0,1,0,9.79a1.18,1.18,0,0,1,.17-.24l.35-.47L1,8.39a.34.34,0,0,1,.13,0l.13,0,.33.24a1.46,1.46,0,0,1,.3.27V5.09H4.86l.76,3.3h.51l1.56-.17L10.07,8l2.78-.33,2.8-.33L18,7l1.56-.17.89-.06c.47,0,1,0,1.53-.06l1.52-.07c.48,0,.77,0,.89-.06a1.51,1.51,0,0,0,.31-.08,3.56,3.56,0,0,0,.47-.19l.45-.21A1.78,1.78,0,0,0,26,6H48.71V3.05a1.55,1.55,0,0,0,.46-.37A6,6,0,0,0,49.71,2a5,5,0,0,0,.46-.71,1.22,1.22,0,0,0,.19-.56l.12.51a3.42,3.42,0,0,0,.14.51c0,.09.08.19.14.32s.09.19.11.19h2.29L53.27,2a1.13,1.13,0,0,1,.14-.25l.14-.13c.08-.07.12-.11.12-.13s0-.14.09-.29.08-.3.12-.47S54,.44,54,.29a1.91,1.91,0,0,0,0-.29V2.29l2.29.51V5.85l.38.25,1.18.1,1.79.17,2.11.2,2.11.22L65.7,7l1.19.14.59.11,1.21.28,1.39.35,1.13.28c.25.06.58.16,1,.3A7.59,7.59,0,0,1,73.36,9a4.16,4.16,0,0,1,1,.75,1.36,1.36,0,0,1,.42,1,1.63,1.63,0,0,1-.54,1.22,4.14,4.14,0,0,1-1.36.84,10.83,10.83,0,0,1-1.84.53c-.68.14-1.34.24-2,.31s-1.23.11-1.76.12l-1.17,0H60.9l-5.1,0-6.2,0-6.75-.05-6.75,0-6.2,0-5.1,0Z"/></g></g></svg>