<svg width="180px" height="55px" xmlns="http://www.w3.org/2000/svg" viewBox="0 0 67.06 19.35" fill="grey"><title>Asset 42</title><g id="Layer_2" data-name="Layer 2"><g id="Layer_2-2" data-name="Layer 2"><path d="M.13,15.25a2.59,2.59,0,0,1,.09-.68c.06-.22.12-.44.2-.66s.14-.44.2-.67a2.54,2.54,0,0,0,.09-.68c0-.05,0-.17,0-.36a.68.68,0,0,0-.26-.12C.28,12,.19,12,.18,12A3.11,3.11,0,0,1,0,11.06H1.45L.18,10.68l2.54-.26s.06,0,.11.1l.14.16a.56.56,0,0,0,.26.24l.34.16a1.05,1.05,0,0,1,.3.22.57.57,0,0,1,.12.39,1.46,1.46,0,0,1,.32-1.23,1.37,1.37,0,0,1,1.08-.55,1.46,1.46,0,0,1,.42.08,2.67,2.67,0,0,1,.46.2,1.89,1.89,0,0,1,.37.32.68.68,0,0,1,.15.42l3.18.26V8.64h.3a2.69,2.69,0,0,0,.05.44.42.42,0,0,0,.28.33,40.17,40.17,0,0,0,1.16-4.63A22.67,22.67,0,0,0,12.13,0a.85.85,0,0,0,.26.75.9.9,0,0,0,.75.27.85.85,0,0,0-.31.34,4,4,0,0,0-.2.42l-.25-.25V3a.17.17,0,0,1,.13.08c.05.05.09.05.12,0a1,1,0,0,0,.16-.25.8.8,0,0,0,.1-.26A1.3,1.3,0,0,1,13,2.8l.11.25V3.3a.32.32,0,0,1-.11.14l-.14.12v6.1h2.54l.64-1.27V9.66h.63l.12-.51A3.84,3.84,0,0,1,17,8.64l.25-.76h1.53c.08,0,.14.1.17.31A5.94,5.94,0,0,1,19,8.9c0,.27.05.53.08.77a.85.85,0,0,0,.17.5,3.59,3.59,0,0,1,.44-.6.74.74,0,0,1,.55-.19,1,1,0,0,1,.31,0c.1,0,.17.1.22.24.05-.14.12-.22.22-.24a.92.92,0,0,1,.29,0,.36.36,0,0,1,.34.15.32.32,0,0,0,.29.16.31.31,0,0,0,.31-.16c.05-.1.17-.15.35-.15l.23,0a.55.55,0,0,1,.1.14,1.43,1.43,0,0,1,.16.24l.15.24.1.14a.35.35,0,0,0,.3-.05.42.42,0,0,0,.21-.21.65.65,0,0,0,.1.59,1.42,1.42,0,0,0,.41.43,1.13,1.13,0,0,0,.14-.25c.06-.14.1-.22.11-.26s.14-.38.26-.75.24-.75.38-1.15.26-.79.38-1.15.2-.61.25-.76h.26l1.52,4.32.29,0,.48.06c.17,0,.32.05.47.09l.29.08s.06,0,.13.11l.12.14h.26l.23-.14a.5.5,0,0,0,.15-.11V4.32c.17,1.12.29,2.26.37,3.42a28.38,28.38,0,0,1,0,3.45,1.15,1.15,0,0,1,0-.53,1.14,1.14,0,0,1,.21-.49l.44,0a3.6,3.6,0,0,1,.62.08,3.83,3.83,0,0,1,.75.23,1.56,1.56,0,0,1,.58.41.59.59,0,0,1,.16.58h2.28c0-.15.12-.24.26-.25l.38,0h.19l.19,0-.51.25h5.09a.28.28,0,0,0,.25.25l.38,0h.19l.19,0a.52.52,0,0,1-.3-.5h2V4.75a.58.58,0,0,1,.45.17,1.54,1.54,0,0,1,.27.36c.08.12.16.25.24.36a.57.57,0,0,0,.43.21l-.5.25v5.77c.25,0,.59,0,1,0s.89-.08,1.38-.14l1.48-.19c.5-.07,1-.14,1.36-.22s.74-.14,1-.2.38-.1.38-.14V4.83H52v5.85h2.29v.25L52,11.44v.46l10.42-2s0,0,0,.07l0,.06a.66.66,0,0,1,0,.13,1,1,0,0,1-.24.14,1.66,1.66,0,0,1-.27.11L54.33,12a1,1,0,0,0,.5.38,1,1,0,0,1,.51.38h3.82l-.26-.25h2c0-.27.07-.43.26-.48a2.35,2.35,0,0,1,.68-.08l1.6-.48a.62.62,0,0,1,.19.06l.32.13.32.1c.09,0,.15,0,.19,0a.73.73,0,0,0,.19-.25A2.53,2.53,0,0,1,65,11a2.38,2.38,0,0,1,.51-.42,1.47,1.47,0,0,1,.79-.19c.39,0,.62.11.67.33a2.87,2.87,0,0,1,.09.84V12a1.29,1.29,0,0,1-.06.42c0,.12-.11.31-.22.57l-.69,1.55c-.28.62-.56,1.23-.82,1.83s-.5,1.1-.7,1.53a7.07,7.07,0,0,1-.33.68l-.25.25c-1.29,0-2.46.06-3.5.08L57,19,53,19l-3.85,0-3.2,0H7.55A10.13,10.13,0,0,1,6,19.31c-.44,0-.94,0-1.5,0a8.13,8.13,0,0,1-1.22-.07A.72.72,0,0,1,2.81,19a1.5,1.5,0,0,1-.22-.55,3.66,3.66,0,0,0-.38-.94.67.67,0,0,0-.35-.34A1.23,1.23,0,0,1,1.45,17,1.41,1.41,0,0,1,1,16.5a4.31,4.31,0,0,1-.35-1.25Zm61.44-2.67c-.1,0-.14.05-.12.13s0,.13.12.13.1,0,.13-.13S61.69,12.58,61.57,12.58Zm-2,.26c-.1,0-.14,0-.13.13s.06.12.13.12.09,0,.13-.12S59.66,12.84,59.54,12.84Zm-1.72.3-.19,0-.19,0c-.06,0-.08,0-.06.08s.12.13.25.13.22,0,.26-.13S57.88,13.16,57.82,13.14Zm-2.43.33c0,.17.07.26.21.26s.2-.09.2-.26-.07-.25-.2-.25S55.39,13.31,55.39,13.47Zm-2.28-1.29a2,2,0,0,0-.49.1.88.88,0,0,0-.38.24.64.64,0,0,0-.15.45h1.48v-.82ZM51.66,4.45c-.07,0-.11,0-.13-.13s0-.12.13-.12.16,0,.12.12S51.71,4.45,51.66,4.45ZM50.9,13.6c0,.1,0,.14.12.13s.13-.06.13-.13,0-.09-.13-.13S50.9,13.48,50.9,13.6Zm-1.15-1.66H49.5l-1.21.2-1.41.24-1.18.21a3,3,0,0,0-.53.11l-.25.26h5.59s.06,0,.13-.11a.52.52,0,0,0,.13-.15v-.13c0-.28-.06-.47-.18-.54a1,1,0,0,0-.53-.12Zm-2,1.79c0,.17.07.25.2.25s.2-.08.2-.25-.06-.26-.2-.26S47.77,13.56,47.77,13.73Zm-.41-.08a1.23,1.23,0,0,0-.28,0,1.37,1.37,0,0,0-.29,0c-.09,0-.12,0-.09.08s.18.12.38.12.33,0,.38-.12S47.45,13.67,47.36,13.65Zm-1.23,0a.62.62,0,0,0-.19,0,.58.58,0,0,0-.19,0c-.06,0-.08,0-.07.08s.12.12.26.12.22,0,.25-.12S46.19,13.67,46.13,13.65ZM44.36,4.32c0,.17-.07.26-.2.26s-.2-.09-.2-.26.06-.25.2-.25S44.36,4.15,44.36,4.32Zm-3.94,7.55-.58,0-.59,0c-.17,0-.23,0-.18.08a1.08,1.08,0,0,0,.3.09,3.3,3.3,0,0,0,.47,0,3.43,3.43,0,0,0,.47,0A1.11,1.11,0,0,0,40.6,12S40.59,11.89,40.42,11.87Zm-2,0-.39,0-.4,0c-.11,0-.14,0-.11.08a.75.75,0,0,0,.51.13.78.78,0,0,0,.51-.13S38.56,11.89,38.45,11.87Zm-1.53,0-.39,0-.39,0c-.11,0-.15,0-.12.08a.78.78,0,0,0,.51.13A.75.75,0,0,0,37,12S37,11.89,36.92,11.87ZM25.5,8.81a4,4,0,0,0-.18,1.1h1.32a3.3,3.3,0,0,0-.18-1c-.11-.35-.23-.68-.35-1A1.61,1.61,0,0,0,25.5,8.81Zm.35,2.12h.77v-.25h-.77Zm-.71-.25c0,.17.07.25.21.25s.2-.08.2-.25-.07-.26-.2-.26S25.14,10.51,25.14,10.68ZM11.92,5.59c0,.17.07.26.21.26s.2-.09.2-.26-.07-.25-.2-.25S11.92,5.42,11.92,5.59Zm-.05,1.27A.38.38,0,0,0,12,6.75a1,1,0,0,0,.12-.14c0-.07,0-.11,0-.13a.18.18,0,0,0,0-.06.2.2,0,0,1,0-.07Zm0,2.8h.26l-.26-.25Zm-.09-1.21a.63.63,0,0,0,0,.19.54.54,0,0,0,0,.19c0,.06.06.08.09.07s.13-.12.13-.26,0-.22-.13-.25S11.81,8.39,11.78,8.45Zm-.42-.57a1.33,1.33,0,0,0,.4-.15A.4.4,0,0,0,12,7.37h-.61Zm-.12,1.65c0,.12,0,.16.12.13s.13-.08.13-.13,0-.09-.13-.12S11.24,9.42,11.24,9.53Zm-.59.13c0,.17.07.25.21.25s.2-.08.2-.25-.07-.25-.2-.25S10.65,9.49,10.65,9.66ZM5.44,19a1.35,1.35,0,0,0-.31,0,1.39,1.39,0,0,0-.3,0c-.08,0-.11,0-.08.08a.56.56,0,0,0,.38.12.55.55,0,0,0,.39-.12S5.53,19,5.44,19Zm-.05-7.42c-.1,0-.14,0-.13.12s.06.13.13.13.09,0,.13-.13S5.51,11.57,5.39,11.57ZM3.65,18.41a.79.79,0,0,0,0,.28.92.92,0,0,0,0,.29q0,.14.09.09a.56.56,0,0,0,.13-.38.53.53,0,0,0-.13-.38S3.67,18.32,3.65,18.41Z"/></g></g></svg>